<?xml version="1.0" encoding="UTF-8" standalone="no"?>
<svg
   xmlns:dc="http://purl.org/dc/elements/1.1/"
   xmlns:cc="http://creativecommons.org/ns#"
   xmlns:rdf="http://www.w3.org/1999/02/22-rdf-syntax-ns#"
   xmlns:svg="http://www.w3.org/2000/svg"
   xmlns="http://www.w3.org/2000/svg"
   xmlns:sodipodi="http://sodipodi.sourceforge.net/DTD/sodipodi-0.dtd"
   xmlns:inkscape="http://www.inkscape.org/namespaces/inkscape"
   version="1.1"
   id="Layer_1"
   x="0px"
   y="0px"
   width="64px"
   height="64px"
   viewBox="0 0 64 64"
   enable-background="new 0 0 64 64"
   xml:space="preserve"
   inkscape:version="1.0.1 (3bc2e813f5, 2020-09-07)"
   sodipodi:docname="bim_layers.svg"
   inkscape:export-filename="/Users/realor/NetBeansProjects/smartcity/threecad/web/css/images/tools/bim_scheme.png"
   inkscape:export-xdpi="45"
   inkscape:export-ydpi="45"><metadata
   id="metadata15"><rdf:RDF><cc:Work
       rdf:about=""><dc:format>image/svg+xml</dc:format><dc:type
         rdf:resource="http://purl.org/dc/dcmitype/StillImage" /><dc:title></dc:title></cc:Work></rdf:RDF></metadata><defs
   id="defs13" /><sodipodi:namedview
   pagecolor="#ffffff"
   bordercolor="#666666"
   borderopacity="1"
   objecttolerance="10"
   gridtolerance="10"
   guidetolerance="10"
   inkscape:pageopacity="0"
   inkscape:pageshadow="2"
   inkscape:window-width="1920"
   inkscape:window-height="948"
   id="namedview11"
   showgrid="true"
   inkscape:zoom="11.291612"
   inkscape:cx="31.184916"
   inkscape:cy="18.913452"
   inkscape:window-x="0"
   inkscape:window-y="27"
   inkscape:window-maximized="1"
   inkscape:current-layer="text4139"
   inkscape:snap-global="true"
   inkscape:document-rotation="0"
   inkscape:snap-bbox="true"><inkscape:grid
     type="xygrid"
     id="grid2985" /></sodipodi:namedview><g
   aria-label="BIM"
   id="text4139"
   style="font-style:normal;font-weight:normal;line-height:0%;font-family:sans-serif;letter-spacing:0px;word-spacing:0px;fill:#000000;fill-opacity:1;stroke:none;stroke-width:1px;stroke-linecap:butt;stroke-linejoin:miter;stroke-opacity:1"><path
     d="m 18.763061,8.4748535 v 5.0079345 h 2.966309 q 1.492309,0 2.206421,-0.613403 0.723266,-0.622558 0.723266,-1.895141 0,-1.2817394 -0.723266,-1.8859872 Q 23.221679,8.4748535 21.72937,8.4748535 Z m 0,-5.6213379 v 4.1198731 h 2.737427 q 1.35498,0 2.01416,-0.5035401 0.668335,-0.5126953 0.668335,-1.5563965 0,-1.0345459 -0.668335,-1.5472412 -0.65918,-0.5126953 -2.01416,-0.5126953 z M 16.913696,1.3337402 h 4.724121 q 2.114868,0 3.259277,0.8789063 1.14441,0.8789062 1.14441,2.4993896 0,1.2542725 -0.585938,1.9958496 -0.585937,0.7415772 -1.721191,0.9246827 1.364135,0.2929687 2.114868,1.2268066 0.759888,0.9246826 0.759888,2.316285 0,1.831054 -1.245118,2.828979 -1.245117,0.997925 -3.54309,0.997925 h -4.907227 z"
     style="font-size:18.75px;line-height:1.25;font-family:sans-serif"
     id="path20" /><path
     d="m 29.7677,1.3337402 h 1.849365 V 15.002564 H 29.7677 Z"
     style="font-size:18.75px;line-height:1.25;font-family:sans-serif"
     id="path22" /><path
     d="m 35.297485,1.3337402 h 2.755737 l 3.48816,9.3017578 3.506469,-9.3017578 h 2.755738 V 15.002564 H 46 V 3 l -3.524781,9.375 h -1.85852 L 37.091919,3 v 12.002564 h -1.794434 z"
     style="font-size:18.75px;line-height:1.25;font-family:sans-serif"
     id="path24" /><polyline
     fill="none"
     stroke="#000000"
     stroke-width="2"
     stroke-miterlimit="10"
     points="18,26.066 2,33 32,45 62,33 46,26.067 "
     id="polyline85"
     transform="matrix(0.86158389,0,0,0.75292516,4.346853,15.530765)" /><polyline
     fill="none"
     stroke="#000000"
     stroke-width="2"
     stroke-miterlimit="10"
     points="18,39.066 2,46 32,58 62,46 46,39.067 "
     id="polyline87"
     transform="matrix(0.86158389,0,0,0.75292516,4.346853,15.530765)" /><polygon
     fill="none"
     stroke="#000000"
     stroke-width="2"
     stroke-miterlimit="10"
     points="62,20 32,7 2,20 32,32 "
     id="polygon89"
     transform="matrix(0.86158389,0,0,0.75292516,4.346853,15.530765)" /></g>
</svg>
