<?xml version="1.0" encoding="UTF-8" standalone="no"?>
<svg
   xmlns:dc="http://purl.org/dc/elements/1.1/"
   xmlns:cc="http://creativecommons.org/ns#"
   xmlns:rdf="http://www.w3.org/1999/02/22-rdf-syntax-ns#"
   xmlns:svg="http://www.w3.org/2000/svg"
   xmlns="http://www.w3.org/2000/svg"
   xmlns:sodipodi="http://sodipodi.sourceforge.net/DTD/sodipodi-0.dtd"
   xmlns:inkscape="http://www.inkscape.org/namespaces/inkscape"
   height="32"
   viewBox="0 0 32 32"
   width="32"
   id="svg4834"
   version="1.1"
   inkscape:version="0.92.5 (2060ec1f9f, 2020-04-08)"
   sodipodi:docname="center_selection.svg"
   inkscape:export-filename="/Users/realor/NetBeansProjects/smartcity/threecad/web/css/images/tools/focus.png"
   inkscape:export-xdpi="90"
   inkscape:export-ydpi="90">
  <metadata
     id="metadata4844">
    <rdf:RDF>
      <cc:Work
         rdf:about="">
        <dc:format>image/svg+xml</dc:format>
        <dc:type
           rdf:resource="http://purl.org/dc/dcmitype/StillImage" />
        <dc:title></dc:title>
      </cc:Work>
    </rdf:RDF>
  </metadata>
  <defs
     id="defs4842" />
  <sodipodi:namedview
     pagecolor="#ffffff"
     bordercolor="#666666"
     borderopacity="1"
     objecttolerance="10"
     gridtolerance="10"
     guidetolerance="10"
     inkscape:pageopacity="0"
     inkscape:pageshadow="2"
     inkscape:window-width="1920"
     inkscape:window-height="948"
     id="namedview4840"
     showgrid="true"
     inkscape:zoom="23.40625"
     inkscape:cx="17.497666"
     inkscape:cy="14.88558"
     inkscape:current-layer="svg4834"
     inkscape:snap-bbox="true"
     inkscape:snap-global="true"
     inkscape:window-x="0"
     inkscape:window-y="27"
     inkscape:window-maximized="1">
    <inkscape:grid
       type="xygrid"
       id="grid4846"
       originx="0"
       empspacing="4" />
  </sodipodi:namedview>
  <path
     d="m 0,-16 48,0 0,48 -48,0 z"
     id="path4836"
     inkscape:connector-curvature="0"
     style="fill:none" />
  <path
     d="m 5.3102847,20.010641 -1.2781219,0 0,5.33328 c 0,1.473319 1.193321,2.66664 2.66664,2.66664 l 5.3332802,0 0,-1.320845 -6.7004365,-0.02137 z m 0.042463,-14.8177923 6.6793353,0.039058 0,-1.2211063 -5.3332805,0 c -1.473319,0 -2.66664,1.1933214 -2.66664,2.66664 l 0,5.3332806 1.3471302,0.02136 z m 19.9911733,-1.1820478 -5.33328,0 -0.01251,1.3801162 6.750122,-0.019843 -0.04273,6.6271329 1.305035,0.01251 0,-5.3332794 c 0,-1.4733186 -1.193321,-2.6666365 -2.66664,-2.6666367 z m 1.413177,22.7426321 -6.725095,-0.04272 0,1.299852 5.33328,0 c 1.473319,0 2.66664,-1.193321 2.66664,-2.66664 l -0.02136,-5.33328 -1.265977,0 z"
     id="path4838"
     inkscape:connector-curvature="0"
     sodipodi:nodetypes="ccsscccccccsscccscccccsscccssccc" />
  <path
     style="fill:#000000;fill-opacity:1;fill-rule:nonzero;stroke:#000000;stroke-width:0;stroke-linecap:butt;stroke-linejoin:miter;stroke-miterlimit:4;stroke-dasharray:none;stroke-opacity:1"
     d="M 16.003906 11 A 5.0040083 4.9961777 0 0 0 11 15.996094 A 5.0040083 4.9961777 0 0 0 16.003906 20.992188 A 5.0040083 4.9961777 0 0 0 21.007812 15.996094 A 5.0040083 4.9961777 0 0 0 16.003906 11 z M 15.994141 12.001953 A 3.9886181 4.0231967 0 0 1 19.982422 16.025391 A 3.9886181 4.0231967 0 0 1 15.994141 20.048828 A 3.9886181 4.0231967 0 0 1 12.005859 16.025391 A 3.9886181 4.0231967 0 0 1 15.994141 12.001953 z "
     id="path4850" />
</svg>
