<?xml version="1.0" encoding="UTF-8" standalone="no"?>
<!-- Generator: Adobe Illustrator 16.0.0, SVG Export Plug-In . SVG Version: 6.00 Build 0)  -->

<svg
   xmlns:dc="http://purl.org/dc/elements/1.1/"
   xmlns:cc="http://creativecommons.org/ns#"
   xmlns:rdf="http://www.w3.org/1999/02/22-rdf-syntax-ns#"
   xmlns:svg="http://www.w3.org/2000/svg"
   xmlns="http://www.w3.org/2000/svg"
   xmlns:sodipodi="http://sodipodi.sourceforge.net/DTD/sodipodi-0.dtd"
   xmlns:inkscape="http://www.inkscape.org/namespaces/inkscape"
   version="1.0"
   id="Layer_1"
   x="0px"
   y="0px"
   width="64px"
   height="64px"
   viewBox="0 0 64 64"
   enable-background="new 0 0 64 64"
   xml:space="preserve"
   inkscape:version="0.92.5 (2060ec1f9f, 2020-04-08)"
   sodipodi:docname="fly.svg"
   inkscape:export-filename="/Users/realor/NetBeansProjects/threecad/web/css/images/fly.png"
   inkscape:export-xdpi="45"
   inkscape:export-ydpi="45"><metadata
     id="metadata3082"><rdf:RDF><cc:Work
         rdf:about=""><dc:format>image/svg+xml</dc:format><dc:type
           rdf:resource="http://purl.org/dc/dcmitype/StillImage" /><dc:title></dc:title></cc:Work></rdf:RDF></metadata><defs
     id="defs3080" /><sodipodi:namedview
     pagecolor="#ffffff"
     bordercolor="#666666"
     borderopacity="1"
     objecttolerance="10"
     gridtolerance="10"
     guidetolerance="10"
     inkscape:pageopacity="0"
     inkscape:pageshadow="2"
     inkscape:window-width="1920"
     inkscape:window-height="948"
     id="namedview3078"
     showgrid="true"
     inkscape:zoom="10.385631"
     inkscape:cx="10.552299"
     inkscape:cy="27.329719"
     inkscape:window-x="0"
     inkscape:window-y="27"
     inkscape:window-maximized="1"
     inkscape:current-layer="Layer_1"
     inkscape:snap-global="true"><inkscape:grid
       type="xygrid"
       id="grid3103"
       empspacing="4" /></sodipodi:namedview><path
     sodipodi:type="arc"
     style="fill:none;stroke:#35001a;stroke-width:1.5;stroke-miterlimit:4;stroke-opacity:1;stroke-dasharray:none"
     id="path3881"
     sodipodi:cx="15"
     sodipodi:cy="49"
     sodipodi:rx="13"
     sodipodi:ry="13"
     d="M 28,49 A 13,13 0 1 1 2,49 13,13 0 1 1 28,49 z"
     transform="matrix(1,0,0,-1,-1,99)" /><path
     sodipodi:type="arc"
     style="fill:none;stroke:#35001a;stroke-width:1.5;stroke-miterlimit:4;stroke-opacity:1;stroke-dasharray:none"
     id="path3927"
     sodipodi:cx="15"
     sodipodi:cy="15"
     sodipodi:rx="13"
     sodipodi:ry="13"
     d="M 28,15 A 13,13 0 1 1 2,15 13,13 0 1 1 28,15 z"
     transform="translate(-1,-1)" /><path
     sodipodi:type="arc"
     style="fill:none;stroke:#35001a;stroke-width:1.5;stroke-miterlimit:4;stroke-opacity:1;stroke-dasharray:none"
     id="path3939"
     sodipodi:cx="49"
     sodipodi:cy="15"
     sodipodi:rx="13"
     sodipodi:ry="13"
     d="m 62,15 a 13,13 0 1 1 -26,0 13,13 0 1 1 26,0 z"
     transform="translate(1,-1)" /><path
     sodipodi:type="arc"
     style="fill:none;stroke:#35001a;stroke-width:1.5;stroke-miterlimit:4;stroke-opacity:1;stroke-dasharray:none"
     id="path3941"
     sodipodi:cx="49"
     sodipodi:cy="49"
     sodipodi:rx="13"
     sodipodi:ry="13"
     d="m 62,49 a 13,13 0 1 1 -26,0 13,13 0 1 1 26,0 z"
     transform="translate(1,1)" /><path
     sodipodi:type="arc"
     style="fill:none;stroke:#35001a;stroke-width:2;stroke-miterlimit:4;stroke-opacity:1;stroke-dasharray:none"
     id="path3951"
     sodipodi:cx="14"
     sodipodi:cy="14"
     sodipodi:rx="2"
     sodipodi:ry="2"
     d="m 16,14 a 2,2 0 1 1 -4,0 2,2 0 1 1 4,0 z" /><path
     style="fill:none;stroke:#000000;stroke-width:2;stroke-linecap:butt;stroke-linejoin:miter;stroke-miterlimit:4;stroke-opacity:1;stroke-dasharray:none"
     d="M 14,14 27,27"
     id="path3943"
     inkscape:connector-curvature="0"
     sodipodi:nodetypes="cc" /><path
     sodipodi:type="arc"
     style="fill:none;stroke:#35001a;stroke-width:2;stroke-miterlimit:4;stroke-opacity:1;stroke-dasharray:none"
     id="path3953"
     sodipodi:cx="50"
     sodipodi:cy="14"
     sodipodi:rx="2"
     sodipodi:ry="2"
     d="m 52,14 a 2,2 0 1 1 -4,0 2,2 0 1 1 4,0 z" /><path
     style="fill:none;stroke:#000000;stroke-width:2;stroke-linecap:butt;stroke-linejoin:miter;stroke-miterlimit:4;stroke-opacity:1;stroke-dasharray:none"
     d="M 50,14 37,27"
     id="path3945"
     inkscape:connector-curvature="0"
     sodipodi:nodetypes="cc" /><path
     sodipodi:type="arc"
     style="fill:none;stroke:#35001a;stroke-width:2;stroke-miterlimit:4;stroke-opacity:1;stroke-dasharray:none"
     id="path3955"
     sodipodi:cx="14"
     sodipodi:cy="50"
     sodipodi:rx="2"
     sodipodi:ry="2"
     d="m 16,50 a 2,2 0 1 1 -4,0 2,2 0 1 1 4,0 z" /><path
     sodipodi:type="arc"
     style="fill:none;stroke:#35001a;stroke-width:2;stroke-miterlimit:4;stroke-opacity:1;stroke-dasharray:none"
     id="path3957"
     sodipodi:cx="50"
     sodipodi:cy="50"
     sodipodi:rx="2"
     sodipodi:ry="2"
     d="m 52,50 a 2,2 0 1 1 -4,0 2,2 0 1 1 4,0 z"
     inkscape:export-xdpi="45"
     inkscape:export-ydpi="45" /><path
     style="fill:none;stroke:#000000;stroke-width:2;stroke-linecap:round;stroke-linejoin:miter;stroke-miterlimit:4;stroke-opacity:1;stroke-dasharray:none"
     d="m 27,27 0,10 3.333334,6 L 32,43 32,43 33.666666,43 37,37 37,27 33.666666,20 30.333334,20 z"
     id="path3969"
     inkscape:connector-curvature="0"
     sodipodi:nodetypes="ccccccccccc" /><path
     style="fill:none;stroke:#000000;stroke-width:2;stroke-linecap:butt;stroke-linejoin:miter;stroke-opacity:1;stroke-miterlimit:4;stroke-dasharray:none"
     d="M 14,50 27,37"
     id="path3006"
     inkscape:connector-curvature="0" /><path
     style="fill:none;stroke:#000000;stroke-width:2;stroke-linecap:butt;stroke-linejoin:miter;stroke-opacity:1;stroke-miterlimit:4;stroke-dasharray:none"
     d="M 50,50 37,37"
     id="path3776"
     inkscape:connector-curvature="0"
     sodipodi:nodetypes="cc" /></svg>