<?xml version="1.0" encoding="UTF-8" standalone="no"?>
<svg
   xmlns:dc="http://purl.org/dc/elements/1.1/"
   xmlns:cc="http://creativecommons.org/ns#"
   xmlns:rdf="http://www.w3.org/1999/02/22-rdf-syntax-ns#"
   xmlns:svg="http://www.w3.org/2000/svg"
   xmlns="http://www.w3.org/2000/svg"
   xmlns:sodipodi="http://sodipodi.sourceforge.net/DTD/sodipodi-0.dtd"
   xmlns:inkscape="http://www.inkscape.org/namespaces/inkscape"
   style="enable-background:new 0 0 24 24;"
   version="1.1"
   viewBox="0 0 24 24"
   xml:space="preserve"
   id="svg5"
   sodipodi:docname="fly_options.svg"
   inkscape:version="0.92.5 (2060ec1f9f, 2020-04-08)"><metadata
     id="metadata11"><rdf:RDF><cc:Work
         rdf:about=""><dc:format>image/svg+xml</dc:format><dc:type
           rdf:resource="http://purl.org/dc/dcmitype/StillImage" /><dc:title></dc:title></cc:Work></rdf:RDF></metadata><defs
     id="defs9" /><sodipodi:namedview
     pagecolor="#ffffff"
     bordercolor="#666666"
     borderopacity="1"
     objecttolerance="10"
     gridtolerance="10"
     guidetolerance="10"
     inkscape:pageopacity="0"
     inkscape:pageshadow="2"
     inkscape:window-width="1316"
     inkscape:window-height="718"
     id="namedview7"
     showgrid="true"
     inkscape:zoom="13.906433"
     inkscape:cx="12"
     inkscape:cy="12"
     inkscape:window-x="0"
     inkscape:window-y="27"
     inkscape:window-maximized="0"
     inkscape:current-layer="icons"><inkscape:grid
       type="xygrid"
       id="grid4521"
       empspacing="4" /></sodipodi:namedview><g
     id="info" /><g
     id="icons"><path
       d="M22.2,14.4L21,13.7c-1.3-0.8-1.3-2.7,0-3.5l1.2-0.7c1-0.6,1.3-1.8,0.7-2.7l-1-1.7c-0.6-1-1.8-1.3-2.7-0.7   L18,5.1c-1.3,0.8-3-0.2-3-1.7V2c0-1.1-0.9-2-2-2h-2C9.9,0,9,0.9,9,2v1.3c0,1.5-1.7,2.5-3,1.7L4.8,4.4c-1-0.6-2.2-0.2-2.7,0.7   l-1,1.7C0.6,7.8,0.9,9,1.8,9.6L3,10.3C4.3,11,4.3,13,3,13.7l-1.2,0.7c-1,0.6-1.3,1.8-0.7,2.7l1,1.7c0.6,1,1.8,1.3,2.7,0.7L6,18.9   c1.3-0.8,3,0.2,3,1.7V22c0,1.1,0.9,2,2,2h2c1.1,0,2-0.9,2-2v-1.3c0-1.5,1.7-2.5,3-1.7l1.2,0.7c1,0.6,2.2,0.2,2.7-0.7l1-1.7   C23.4,16.2,23.1,15,22.2,14.4z M12,16c-2.2,0-4-1.8-4-4c0-2.2,1.8-4,4-4s4,1.8,4,4C16,14.2,14.2,16,12,16z"
       id="settings"
       style="fill:#646464;fill-opacity:1" /></g></svg>