<?xml version="1.0" encoding="UTF-8" standalone="no"?>
<svg
   xmlns:dc="http://purl.org/dc/elements/1.1/"
   xmlns:cc="http://creativecommons.org/ns#"
   xmlns:rdf="http://www.w3.org/1999/02/22-rdf-syntax-ns#"
   xmlns:svg="http://www.w3.org/2000/svg"
   xmlns="http://www.w3.org/2000/svg"
   xmlns:sodipodi="http://sodipodi.sourceforge.net/DTD/sodipodi-0.dtd"
   xmlns:inkscape="http://www.inkscape.org/namespaces/inkscape"
   width="16"
   height="16"
   viewBox="0 0 4.2333331 4.2333331"
   version="1.1"
   id="svg8"
   inkscape:version="0.92.5 (2060ec1f9f, 2020-04-08)"
   sodipodi:docname="fly_drone_top.svg">
  <defs
     id="defs2" />
  <sodipodi:namedview
     id="base"
     pagecolor="#ffffff"
     bordercolor="#666666"
     borderopacity="1.0"
     inkscape:pageopacity="0.0"
     inkscape:pageshadow="2"
     inkscape:zoom="31.678384"
     inkscape:cx="8.2982025"
     inkscape:cy="8.8040832"
     inkscape:document-units="mm"
     inkscape:current-layer="layer1"
     inkscape:document-rotation="0"
     showgrid="true"
     units="px"
     inkscape:window-width="1920"
     inkscape:window-height="948"
     inkscape:window-x="0"
     inkscape:window-y="27"
     inkscape:window-maximized="1"
     inkscape:snap-bbox="true"
     inkscape:snap-global="true"
     objecttolerance="10000">
    <inkscape:grid
       type="xygrid"
       id="grid1402"
       empspacing="2" />
  </sodipodi:namedview>
  <metadata
     id="metadata5">
    <rdf:RDF>
      <cc:Work
         rdf:about="">
        <dc:format>image/svg+xml</dc:format>
        <dc:type
           rdf:resource="http://purl.org/dc/dcmitype/StillImage" />
        <dc:title />
      </cc:Work>
    </rdf:RDF>
  </metadata>
  <g
     inkscape:label="Capa 1"
     inkscape:groupmode="layer"
     id="layer1"
     transform="translate(0,1.8520832)">
    <path
       style="fill:none;fill-opacity:1;stroke:#646463;stroke-width:0.26458333;stroke-linecap:round;stroke-linejoin:round;stroke-miterlimit:4;stroke-dasharray:none;stroke-dashoffset:1.51180911;stroke-opacity:1;paint-order:normal"
       id="path1389"
       sodipodi:type="arc"
       sodipodi:cx="1.0590063"
       sodipodi:cy="-0.80005151"
       sodipodi:rx="0.65671712"
       sodipodi:ry="0.65671712"
       sodipodi:start="2.9710216"
       sodipodi:end="2.9673041"
       sodipodi:open="true"
       d="m 0.41181949,-0.68857697 a 0.65671712,0.65671712 0 0 1 0.53511087,-0.75855753 0.65671712,0.65671712 0 0 1 0.75905454,0.53440568 0.65671712,0.65671712 0 0 1 -0.5337,0.75955083 0.65671712,0.65671712 0 0 1 -0.76004653,-0.53299384" />
    <path
       style="fill:none;fill-opacity:1;stroke:#646463;stroke-width:0.26458333;stroke-linecap:round;stroke-linejoin:round;stroke-miterlimit:4;stroke-dasharray:none;stroke-dashoffset:1.51180911;stroke-opacity:1;paint-order:normal"
       id="path1389-6"
       sodipodi:type="arc"
       sodipodi:cx="3.1654737"
       sodipodi:cy="-0.792575"
       sodipodi:rx="0.653458"
       sodipodi:ry="0.653458"
       sodipodi:start="2.9710216"
       sodipodi:end="2.9673041"
       sodipodi:open="true"
       d="M 2.5214987,-0.68165368 A 0.653458,0.653458 0 0 1 3.0539539,-1.4364466 0.653458,0.653458 0 0 1 3.8092414,-0.90469312 0.653458,0.653458 0 0 1 3.2781901,-0.14891175 0.653458,0.653458 0 0 1 2.5219155,-0.67926047" />
    <path
       style="fill:none;fill-opacity:1;stroke:#646463;stroke-width:0.26458333;stroke-linecap:round;stroke-linejoin:round;stroke-miterlimit:4;stroke-dasharray:none;stroke-dashoffset:1.51180911;stroke-opacity:1;paint-order:normal"
       id="path1389-7"
       sodipodi:type="arc"
       sodipodi:cx="1.0649025"
       sodipodi:cy="1.3330531"
       sodipodi:rx="0.65000409"
       sodipodi:ry="0.65000409"
       sodipodi:start="2.9710216"
       sodipodi:end="2.9673041"
       sodipodi:open="true"
       d="M 0.42433132,1.4433881 A 0.65000409,0.65000409 0 0 1 0.95397222,0.69258471 0.65000409,0.65000409 0 0 1 1.7052676,1.2215276 0.65000409,0.65000409 0 0 1 1.1770231,1.9733142 0.65000409,0.65000409 0 0 1 0.42474591,1.4457687" />
    <path
       style="fill:none;fill-opacity:1;stroke:#646463;stroke-width:0.26458333;stroke-linecap:round;stroke-linejoin:round;stroke-miterlimit:4;stroke-dasharray:none;stroke-dashoffset:1.51180911;stroke-opacity:1;paint-order:normal"
       id="path1389-7-5"
       sodipodi:type="arc"
       sodipodi:cx="3.1838565"
       sodipodi:cy="1.3222026"
       sodipodi:rx="0.64905685"
       sodipodi:ry="0.64905685"
       sodipodi:start="2.9710216"
       sodipodi:end="2.9673041"
       sodipodi:open="true"
       d="M 2.5442188,1.4323768 A 0.64905685,0.64905685 0 0 1 3.0730878,0.6826675 0.64905685,0.64905685 0 0 1 3.8232883,1.2108396 0.64905685,0.64905685 0 0 1 3.2958137,1.9615306 0.64905685,0.64905685 0 0 1 2.5446327,1.4347539" />
    <path
       style="color:#000000;font-style:normal;font-variant:normal;font-weight:normal;font-stretch:normal;font-size:medium;line-height:normal;font-family:sans-serif;font-variant-ligatures:normal;font-variant-position:normal;font-variant-caps:normal;font-variant-numeric:normal;font-variant-alternates:normal;font-feature-settings:normal;text-indent:0;text-align:start;text-decoration:none;text-decoration-line:none;text-decoration-style:solid;text-decoration-color:#000000;letter-spacing:normal;word-spacing:normal;text-transform:none;writing-mode:lr-tb;direction:ltr;text-orientation:mixed;dominant-baseline:auto;baseline-shift:baseline;text-anchor:start;white-space:normal;shape-padding:0;clip-rule:nonzero;display:inline;overflow:visible;visibility:visible;opacity:1;isolation:auto;mix-blend-mode:normal;color-interpolation:sRGB;color-interpolation-filters:linearRGB;solid-color:#000000;solid-opacity:1;vector-effect:none;fill:#646464;fill-opacity:1;fill-rule:nonzero;stroke:#646463;stroke-width:0.50000001;stroke-linecap:round;stroke-linejoin:miter;stroke-miterlimit:4;stroke-dasharray:none;stroke-dashoffset:0;stroke-opacity:1;color-rendering:auto;image-rendering:auto;shape-rendering:auto;text-rendering:auto;enable-background:accumulate"
       d="M 3.9941406 3.4941406 A 0.50004997 0.50004997 0 0 0 3.6464844 4.3496094 L 6.1484375 6.8515625 L 6.8535156 6.1464844 L 4.3554688 3.6484375 A 0.50004997 0.50004997 0 0 0 3.9941406 3.4941406 z M 11.988281 3.4941406 A 0.50004997 0.50004997 0 0 0 11.648438 3.6484375 L 9.1464844 6.1464844 L 9.8515625 6.8515625 L 12.349609 4.3496094 A 0.50004997 0.50004997 0 0 0 11.988281 3.4941406 z M 6.1464844 9.1464844 L 3.6464844 11.642578 A 0.50132753 0.50132753 0 1 0 4.3554688 12.351562 L 6.8515625 9.8515625 L 6.1464844 9.1464844 z M 9.8535156 9.1464844 L 9.1484375 9.8515625 L 11.648438 12.351562 A 0.50004997 0.50004997 0 1 0 12.349609 11.642578 L 9.8535156 9.1464844 z "
       transform="matrix(0.26458333,0,0,0.26458333,0,-1.8520832)"
       id="path1451" />
    <path
       style="fill:none;fill-opacity:1;stroke:#646463;stroke-width:0.26458332px;stroke-linecap:round;stroke-linejoin:round;stroke-opacity:1"
       d="M 2.1166667,-0.52916653 1.5875001,1.6386422e-7 V 0.52916679 L 2.1166667,1.0583334 2.6458335,0.52916679 V 1.6386422e-7 Z"
       id="path1460-3"
       inkscape:connector-curvature="0" />
  </g>
</svg>
