<?xml version="1.0" encoding="UTF-8" standalone="no"?>
<svg
   xmlns:dc="http://purl.org/dc/elements/1.1/"
   xmlns:cc="http://creativecommons.org/ns#"
   xmlns:rdf="http://www.w3.org/1999/02/22-rdf-syntax-ns#"
   xmlns:svg="http://www.w3.org/2000/svg"
   xmlns="http://www.w3.org/2000/svg"
   xmlns:sodipodi="http://sodipodi.sourceforge.net/DTD/sodipodi-0.dtd"
   xmlns:inkscape="http://www.inkscape.org/namespaces/inkscape"
   enable-background="new 0 0 48 48"
   height="64"
   id="Layer_1"
   version="1.1"
   viewBox="0 0 64 64"
   width="64"
   xml:space="preserve"
   inkscape:version="0.92.5 (2060ec1f9f, 2020-04-08)"
   sodipodi:docname="openlocal.svg"
   inkscape:export-filename="/Users/realor/NetBeansProjects/smartcity/threecad/web/css/images/tools/openlocal.png"
   inkscape:export-xdpi="45"
   inkscape:export-ydpi="45"><metadata
     id="metadata9"><rdf:RDF><cc:Work
         rdf:about=""><dc:format>image/svg+xml</dc:format><dc:type
           rdf:resource="http://purl.org/dc/dcmitype/StillImage" /><dc:title></dc:title></cc:Work></rdf:RDF></metadata><defs
     id="defs7" /><sodipodi:namedview
     pagecolor="#ffffff"
     bordercolor="#666666"
     borderopacity="1"
     objecttolerance="10"
     gridtolerance="10"
     guidetolerance="10"
     inkscape:pageopacity="0"
     inkscape:pageshadow="2"
     inkscape:window-width="1719"
     inkscape:window-height="812"
     id="namedview5"
     showgrid="true"
     inkscape:zoom="10.145834"
     inkscape:cx="45.426388"
     inkscape:cy="35.447696"
     inkscape:window-x="0"
     inkscape:window-y="27"
     inkscape:window-maximized="0"
     inkscape:current-layer="Layer_1"
     inkscape:snap-global="false"><inkscape:grid
       type="xygrid"
       id="grid2986"
       empspacing="4"
       visible="true"
       enabled="true"
       snapvisiblegridlinesonly="true" /></sodipodi:namedview><path
     clip-rule="evenodd"
     d="m 56.174236,57.721223 0,0 -48.0000002,0 0,0 c -3.3144,0 -6,-2.6856 -6,-6 l 0,-30 c 0,-1 1,-2 2,-2 l 4,0 0,-7 c 0,-2.6508 2.3492002,-5.0000003 5.0000002,-5.0000003 l 12,0 c 2.6508,0 5,2.3492003 5,5.0000003 l 0,1 30,0 c 1.501382,0 2,1 2,2 l 0,36 c 0,3.3144 -3,6 -6,6 z m -52.0000002,-36 0,30 0,0 c 0,1.9884 2.0128,4 4,4 l 44.0000002,0 c 0,0 -1.800443,-1.006645 -2,-4 l 0,-30 z m 56.0000002,-6 -32,0 0,-3 c 0,-1.3248 -1.6752,-3.0000003 -3,-3.0000003 l -12,0 c -1.3248,0 -3,1.6752003 -3,3.0000003 l 0,7 40,0 c 1,0 2,1 2,2 l 0,30 c 0,3 2.0116,4 4,4 1.9884,0 4,-1 4,-4 z"
     id="path3"
     inkscape:connector-curvature="0"
     style="fill-rule:evenodd"
     sodipodi:nodetypes="ccccscccsssscsssccccscsccccsssscccsssc" /></svg>