<?xml version="1.0" encoding="UTF-8" standalone="no"?>
<svg
   data-name="OpenAI Logo"
   width="64"
   height="64"
   viewBox="140 140 1386.6667 1386.6667"
   version="1.1"
   id="svg209"
   sodipodi:docname="openai.svg"
   inkscape:version="1.2.2 (b0a8486541, 2022-12-01)"
   xmlns:inkscape="http://www.inkscape.org/namespaces/inkscape"
   xmlns:sodipodi="http://sodipodi.sourceforge.net/DTD/sodipodi-0.dtd"
   xmlns="http://www.w3.org/2000/svg"
   xmlns:svg="http://www.w3.org/2000/svg">
  <sodipodi:namedview
     id="namedview211"
     pagecolor="#ffffff"
     bordercolor="#666666"
     borderopacity="1.0"
     inkscape:showpageshadow="2"
     inkscape:pageopacity="0.0"
     inkscape:pagecheckerboard="0"
     inkscape:deskcolor="#d1d1d1"
     showgrid="true"
     inkscape:zoom="14.375"
     inkscape:cx="51.826087"
     inkscape:cy="42.017391"
     inkscape:window-width="1920"
     inkscape:window-height="935"
     inkscape:window-x="0"
     inkscape:window-y="27"
     inkscape:window-maximized="1"
     inkscape:current-layer="svg209">
    <inkscape:grid
       type="xygrid"
       id="grid749"
       spacingx="21.666667"
       spacingy="21.666667" />
  </sodipodi:namedview>
  <defs
     id="defs206">
    <linearGradient
       id="linear"
       x1="1"
       y1="0.22"
       x2="0"
       y2="0.77999997">
      <stop
         offset="0%"
         stop-color="rgb(131,211,231)"
         id="stop193" />
      <stop
         offset="2%"
         stop-color="rgb(127,203,229)"
         id="stop195" />
      <stop
         offset="25%"
         stop-color="rgb(86,115,217)"
         id="stop197" />
      <stop
         offset="49%"
         stop-color="rgb(105,80,190)"
         id="stop199" />
      <stop
         offset="98%"
         stop-color="rgb(197,59,119)"
         id="stop201" />
      <stop
         offset="100%"
         stop-color="rgb(197,59,119)"
         id="stop203" />
    </linearGradient>
  </defs>
  <path
     id="logo"
     d="M 1397.6331,715.37982 A 328.2059,323.83711 0 0 0 1369.4254,449.38542 331.94615,327.52756 0 0 0 1011.895,292.23371 328.2059,323.83711 0 0 0 764.338,183.33975 331.9721,327.5532 0 0 0 447.66451,410.12312 328.30978,323.93963 0 0 0 228.18526,567.22359 a 331.99809,327.57883 0 0 0 40.83093,384.06324 328.2059,323.83711 0 0 0 28.20762,265.99437 331.9721,327.5532 0 0 0 357.53041,157.1517 328.2059,323.83711 0 0 0 247.55701,108.894 331.9721,327.5532 0 0 0 316.77747,-226.9115 328.30978,323.93963 0 0 0 219.4792,-157.1004 331.99809,327.57883 0 0 0 -40.9348,-383.93518 z M 902.41513,1398.344 a 246.20637,242.92909 0 0 1 -158.05105,-56.3819 c 2.00001,-1.0763 5.50648,-2.9728 7.79218,-4.3568 l 262.33614,-149.5145 a 42.649105,42.081399 0 0 0 21.5583,-36.8277 V 786.34415 l 110.8825,63.17336 a 3.9480292,3.8954765 0 0 1 2.1558,2.99847 V 1154.723 A 247.21936,243.92859 0 0 1 902.41513,1398.344 Z M 371.92467,1174.7898 A 246.0765,242.80095 0 0 1 342.4703,1011.5385 c 1.94805,1.1534 5.35062,3.2036 7.79218,4.5875 l 262.33615,149.5146 a 42.701053,42.132653 0 0 0 43.09065,0 L 975.97314,983.16822 V 1109.515 a 3.974003,3.9211048 0 0 1 -1.58439,3.3572 L 709.19546,1263.9501 A 247.16741,243.87733 0 0 1 371.92467,1174.7898 Z M 302.9121,609.71504 A 245.99858,242.72407 0 0 1 431.43084,502.89697 c 0,2.22964 -0.12995,6.17639 -0.12995,8.91858 v 299.02909 a 42.623129,42.05577 0 0 0 21.53234,36.80201 l 320.28386,182.44665 -110.88246,63.1734 a 3.974003,3.9211048 0 0 1 -3.74024,0.3332 L 393.2752,942.39385 A 247.16741,243.87733 0 0 1 302.9121,609.71504 Z M 1213.9198,818.89187 893.63597,636.41955 1004.5184,573.27184 a 3.974003,3.9211048 0 0 1 3.7403,-0.33317 l 265.2192,151.07785 a 246.95961,243.67231 0 0 1 -38.1556,439.65058 c 0,-2.2552 0,-6.2019 0,-8.9441 V 855.69388 a 42.597157,42.030142 0 0 0 -21.4025,-36.80201 z m 110.363,-163.89192 c -1.9481,-1.17891 -5.3506,-3.20352 -7.7922,-4.58743 l -262.336,-149.51456 a 42.753001,42.18391 0 0 0 -43.0907,0 L 690.77998,683.3703 V 557.0236 a 3.974003,3.9211048 0 0 1 1.58441,-3.35728 L 957.55766,402.71659 A 246.93364,243.64668 0 0 1 1324.2828,654.99995 Z M 630.49463,880.19438 519.58617,817.021 a 3.9480292,3.8954765 0 0 1 -2.15583,-2.99847 V 511.81555 A 246.93364,243.64668 0 0 1 922.36307,324.73018 c -2,1.07637 -5.4805,2.97287 -7.79215,4.35679 L 652.23475,478.6015 a 42.623129,42.05577 0 0 0 -21.5583,36.802 z M 690.72804,752.0537 833.37656,670.76126 976.02511,752.00245 V 914.53608 L 833.37656,995.77731 690.72804,914.53608 Z"
     fill="#202123"
     style="stroke-width:2.58004" />
</svg>
