<?xml version="1.0" encoding="UTF-8" standalone="no"?>
<svg
   enable-background="new 0 0 48 48"
   height="64"
   version="1.1"
   viewBox="0 0 64 64"
   width="64"
   xml:space="preserve"
   id="svg29"
   sodipodi:docname="paint.svg"
   inkscape:version="1.1.1 (3bf5ae0d25, 2021-09-20)"
   xmlns:inkscape="http://www.inkscape.org/namespaces/inkscape"
   xmlns:sodipodi="http://sodipodi.sourceforge.net/DTD/sodipodi-0.dtd"
   xmlns="http://www.w3.org/2000/svg"
   xmlns:svg="http://www.w3.org/2000/svg"><defs
     id="defs33" /><sodipodi:namedview
     id="namedview31"
     pagecolor="#ffffff"
     bordercolor="#666666"
     borderopacity="1.0"
     inkscape:pageshadow="2"
     inkscape:pageopacity="0.0"
     inkscape:pagecheckerboard="0"
     showgrid="true"
     inkscape:snap-path-clip="true"
     inkscape:snap-path-mask="true"
     inkscape:zoom="10.59187"
     inkscape:cx="28.937289"
     inkscape:cy="34.602011"
     inkscape:window-width="1920"
     inkscape:window-height="948"
     inkscape:window-x="0"
     inkscape:window-y="27"
     inkscape:window-maximized="1"
     inkscape:current-layer="g26"
     inkscape:snap-bbox="true"
     inkscape:bbox-nodes="true"
     inkscape:bbox-paths="true"
     inkscape:snap-bbox-edge-midpoints="true"
     inkscape:snap-bbox-midpoints="true"
     inkscape:snap-global="true"><inkscape:grid
       type="xygrid"
       id="grid850" /></sodipodi:namedview><g
     id="Expanded"><g
       id="g26"><g
         id="g4"
         transform="matrix(1,0,0,-1,8,60)"><path
           style="color:#000000;fill:#000000;-inkscape-stroke:none"
           d="m 24.065415,-2.0270572 c -2.795786,0 -3.997503,0.5997967 -5.703125,2.28906249 C 16.704797,1.903604 16.07584,4.0419366 16.065415,6.7854428 L 16,22 H 5 C 3.7848576,22 2.3374459,22.248492 1.2929687,23.292969 0.24849176,24.337446 0,25.784857 0,27 v 9 H 1 48 V 26.908203 C 48,25.703108 47.716634,24.30709 46.708984,23.294922 45.712106,22.293572 44.331097,22 43.132812,22 H 32 L 32.065415,6.9729428 C 32.077578,4.1789834 31.473975,1.9674404 29.772446,0.26591149 28.070917,-1.4356172 26.859401,-2.0270572 24.065415,-2.0270572 Z m 0,1.99999999 c 2.539342,0 3.013076,0.427139 4.292969,1.70703131 1.279892,1.2798922 1.715761,2.7536415 1.707031,5.2929687 L 30,24 h 13.132812 c 0.82561,0 1.72718,0.272121 2.158204,0.705078 C 45.729834,25.145864 46,26.06309 46,26.908203 V 34 H 2 V 27 C 2,26.106959 2.2607978,25.153265 2.7070312,24.707031 3.1532646,24.260798 4.1069593,24 5,24 H 18 L 18.06542,6.7854428 c 0.0094,-2.4649164 0.448899,-3.8593639 1.703125,-5.1015625 1.290129,-1.27775691 1.759332,-1.71093751 4.296875,-1.71093751 z"
           id="path1510"
           sodipodi:nodetypes="ssscssscccssscsssssscsssccssscssss" /></g><g
         id="g12"
         transform="translate(8,8)" /><g
         id="g16"
         transform="translate(8,8)" /><g
         id="g20"
         transform="translate(8,8)" /><g
         id="g24"
         transform="matrix(1,0,0,-1,8,60)"><circle
           cx="24"
           cy="8"
           r="2"
           id="circle22" /></g><path
         style="fill:#000000;fill-opacity:1;stroke:none;stroke-width:1px;stroke-linecap:butt;stroke-linejoin:miter;stroke-opacity:1"
         d="M 10.045768,23.956335 10,2 H 54 V 24 H 52 V 4 H 12 v 20 h -2"
         id="path2999" /><path
         style="fill:none;stroke:#000000;stroke-width:2;stroke-linecap:round;stroke-linejoin:miter;stroke-miterlimit:4;stroke-dasharray:none;stroke-opacity:1"
         d="M 29,14 V 3"
         id="path3147"
         sodipodi:nodetypes="cc" /><path
         style="fill:none;stroke:#000000;stroke-width:2;stroke-linecap:round;stroke-linejoin:miter;stroke-miterlimit:4;stroke-dasharray:none;stroke-opacity:1"
         d="m 37,11.5 v -7"
         id="path3147-7"
         sodipodi:nodetypes="cc" /><path
         style="fill:none;stroke:#000000;stroke-width:2;stroke-linecap:round;stroke-linejoin:miter;stroke-miterlimit:4;stroke-dasharray:none;stroke-opacity:1"
         d="M 45,15 V 3"
         id="path3147-3"
         sodipodi:nodetypes="cc" /><path
         style="fill:none;stroke:#000000;stroke-width:2;stroke-linecap:round;stroke-linejoin:miter;stroke-miterlimit:4;stroke-dasharray:none;stroke-opacity:1"
         d="M 21,18.5 V 3.5"
         id="path3147-3-6"
         sodipodi:nodetypes="cc" /></g></g></svg>
