<?xml version="1.0" encoding="UTF-8" standalone="no"?>
<svg
   xmlns:dc="http://purl.org/dc/elements/1.1/"
   xmlns:cc="http://creativecommons.org/ns#"
   xmlns:rdf="http://www.w3.org/1999/02/22-rdf-syntax-ns#"
   xmlns:svg="http://www.w3.org/2000/svg"
   xmlns="http://www.w3.org/2000/svg"
   xmlns:sodipodi="http://sodipodi.sourceforge.net/DTD/sodipodi-0.dtd"
   xmlns:inkscape="http://www.inkscape.org/namespaces/inkscape"
   version="1.1"
   id="Layer_1"
   x="0px"
   y="0px"
   width="64px"
   height="64px"
   viewBox="0 0 64 64"
   enable-background="new 0 0 64 64"
   xml:space="preserve"
   inkscape:version="0.92.5 (2060ec1f9f, 2020-04-08)"
   sodipodi:docname="rebuild.svg"
   inkscape:export-filename="/Users/realor/NetBeansProjects/smartcity/threecad/web/css/images/tools/zoom_all.png"
   inkscape:export-xdpi="45"
   inkscape:export-ydpi="45"><metadata
     id="metadata13"><rdf:RDF><cc:Work
         rdf:about=""><dc:format>image/svg+xml</dc:format><dc:type
           rdf:resource="http://purl.org/dc/dcmitype/StillImage" /><dc:title /></cc:Work></rdf:RDF></metadata><defs
     id="defs11" /><sodipodi:namedview
     pagecolor="#ffffff"
     bordercolor="#666666"
     borderopacity="1"
     objecttolerance="10"
     gridtolerance="10"
     guidetolerance="10"
     inkscape:pageopacity="0"
     inkscape:pageshadow="2"
     inkscape:window-width="1920"
     inkscape:window-height="948"
     id="namedview9"
     showgrid="true"
     inkscape:snap-bbox="false"
     inkscape:zoom="3.9921877"
     inkscape:cx="26.486374"
     inkscape:cy="25.549849"
     inkscape:window-x="0"
     inkscape:window-y="27"
     inkscape:window-maximized="1"
     inkscape:current-layer="Layer_1"
     inkscape:document-rotation="0"
     inkscape:snap-global="true"><inkscape:grid
       type="xygrid"
       id="grid2990"
       empspacing="4" /></sodipodi:namedview><path
     style="color:#000000;font-style:normal;font-variant:normal;font-weight:normal;font-stretch:normal;font-size:medium;line-height:normal;font-family:sans-serif;font-variant-ligatures:normal;font-variant-position:normal;font-variant-caps:normal;font-variant-numeric:normal;font-variant-alternates:normal;font-feature-settings:normal;text-indent:0;text-align:start;text-decoration:none;text-decoration-line:none;text-decoration-style:solid;text-decoration-color:#000000;letter-spacing:normal;word-spacing:normal;text-transform:none;writing-mode:lr-tb;direction:ltr;text-orientation:mixed;dominant-baseline:auto;baseline-shift:baseline;text-anchor:start;white-space:normal;shape-padding:0;clip-rule:nonzero;display:inline;overflow:visible;visibility:visible;opacity:1;isolation:auto;mix-blend-mode:normal;color-interpolation:sRGB;color-interpolation-filters:linearRGB;solid-color:#000000;solid-opacity:1;vector-effect:none;fill:#35001a;fill-opacity:1;fill-rule:nonzero;stroke:none;stroke-width:2;stroke-linecap:round;stroke-linejoin:round;stroke-miterlimit:4;stroke-dasharray:none;stroke-dashoffset:0;stroke-opacity:1;color-rendering:auto;image-rendering:auto;shape-rendering:auto;text-rendering:auto;enable-background:accumulate"
     d="M 32.302734 1.9980469 C 20.652116 1.8904836 9.5120615 8.6221576 4.5410156 19.943359 A 1.0001 1.0001 0 0 0 4.4921875 20.03125 C 4.4906375 20.03485 4.4878781 20.037416 4.4863281 20.041016 A 1.0001 1.0001 0 0 0 4.4785156 20.058594 A 1.0001 1.0001 0 0 0 4.4628906 20.09375 C 4.4582106 20.10457 4.457795 20.116133 4.453125 20.126953 A 1.0001 1.0001 0 0 0 4.4433594 20.154297 C 0.020536544 30.443919 1.8169231 41.856478 8.1542969 50.189453 L 9.5742188 48.769531 C 3.7714293 41.000463 2.1709722 30.436067 6.2988281 20.888672 A 1.0001 1.0001 0 0 0 6.3105469 20.861328 A 1.0001 1.0001 0 0 0 6.3203125 20.837891 C 10.945385 10.19664 21.367153 3.8833374 32.275391 3.9902344 C 35.911467 4.0258667 39.600613 4.7744646 43.148438 6.3144531 C 45.187089 7.1993619 47.060982 8.3031107 48.767578 9.5761719 L 50.195312 8.1484375 C 48.306813 6.7089942 46.220095 5.467874 43.945312 4.4804688 C 40.149691 2.8329197 36.198243 2.0340118 32.302734 1.9980469 z M 55.847656 13.808594 L 54.425781 15.230469 C 60.233479 23.007476 61.830061 33.585033 57.689453 43.136719 C 51.536317 57.330969 35.072205 63.841629 20.875 57.695312 C 18.827521 56.808909 16.945552 55.701542 15.232422 54.423828 L 13.804688 55.851562 C 15.700499 57.296826 17.79691 58.541965 20.082031 59.53125 C 35.27084 66.106856 52.942489 59.117289 59.525391 43.931641 C 63.995183 33.620582 62.206064 22.165786 55.847656 13.808594 z "
     id="path2988" /><path
     style="fill:none;stroke:#000000;stroke-width:2;stroke-linecap:butt;stroke-linejoin:miter;stroke-opacity:1;stroke-miterlimit:4;stroke-dasharray:none"
     d="m 2,48 7,2 2,-7"
     id="path832"
     inkscape:connector-curvature="0"
     sodipodi:nodetypes="ccc" /><path
     style="fill:none;stroke:#000000;stroke-width:2;stroke-linecap:butt;stroke-linejoin:miter;stroke-miterlimit:4;stroke-dasharray:none;stroke-opacity:1"
     d="m 62,16 -7,-2 -2,7"
     id="path832-3"
     inkscape:connector-curvature="0"
     sodipodi:nodetypes="ccc" /><path
     style="fill:none;stroke:#000000;stroke-width:2;stroke-linecap:butt;stroke-linejoin:miter;stroke-miterlimit:4;stroke-dasharray:none;stroke-opacity:1"
     d="M 16,43 H 48"
     id="path815"
     inkscape:connector-curvature="0" /><path
     style="fill:none;stroke:#000000;stroke-width:2.05195665;stroke-linecap:butt;stroke-linejoin:miter;stroke-miterlimit:4;stroke-dasharray:none;stroke-opacity:1"
     d="M 21,43 V 23"
     id="path817"
     inkscape:connector-curvature="0" /><path
     style="fill:none;stroke:#000000;stroke-width:2.05195665;stroke-linecap:butt;stroke-linejoin:miter;stroke-miterlimit:4;stroke-dasharray:none;stroke-opacity:1"
     d="M 43,43 V 23"
     id="path819"
     inkscape:connector-curvature="0" /><path
     style="fill:none;stroke:#000000;stroke-width:2;stroke-linecap:butt;stroke-linejoin:miter;stroke-opacity:1;stroke-miterlimit:4;stroke-dasharray:none"
     d="M 16,26 32,16 48,26"
     id="path821"
     inkscape:connector-curvature="0" /><path
     style="fill:none;stroke:#000000;stroke-width:1px;stroke-linecap:butt;stroke-linejoin:miter;stroke-opacity:1"
     d="m 28.461838,42 0.03914,-9.46771 7.060666,-0.06262 L 35.530333,42"
     id="path823"
     inkscape:connector-curvature="0"
     sodipodi:nodetypes="cccc" /></svg>