<?xml version="1.0" encoding="UTF-8" standalone="no"?>
<!-- Generator: Adobe Illustrator 16.0.0, SVG Export Plug-In . SVG Version: 6.00 Build 0)  -->

<svg
   xmlns:dc="http://purl.org/dc/elements/1.1/"
   xmlns:cc="http://creativecommons.org/ns#"
   xmlns:rdf="http://www.w3.org/1999/02/22-rdf-syntax-ns#"
   xmlns:svg="http://www.w3.org/2000/svg"
   xmlns="http://www.w3.org/2000/svg"
   xmlns:sodipodi="http://sodipodi.sourceforge.net/DTD/sodipodi-0.dtd"
   xmlns:inkscape="http://www.inkscape.org/namespaces/inkscape"
   version="1.1"
   id="Layer_1"
   x="0px"
   y="0px"
   width="64px"
   height="64px"
   viewBox="0 0 64 64"
   enable-background="new 0 0 64 64"
   xml:space="preserve"
   inkscape:version="0.48.4 r9939"
   sodipodi:docname="save.svg"
   inkscape:export-filename="C:\Users\realor\Desktop\TICONS\save.png"
   inkscape:export-xdpi="45"
   inkscape:export-ydpi="45"><metadata
   id="metadata15"><rdf:RDF><cc:Work
       rdf:about=""><dc:format>image/svg+xml</dc:format><dc:type
         rdf:resource="http://purl.org/dc/dcmitype/StillImage" /><dc:title></dc:title></cc:Work></rdf:RDF></metadata><defs
   id="defs13" /><sodipodi:namedview
   pagecolor="#ffffff"
   bordercolor="#666666"
   borderopacity="1"
   objecttolerance="10"
   gridtolerance="10"
   guidetolerance="10"
   inkscape:pageopacity="0"
   inkscape:pageshadow="2"
   inkscape:window-width="1366"
   inkscape:window-height="702"
   id="namedview11"
   showgrid="false"
   inkscape:zoom="3.9921875"
   inkscape:cx="32"
   inkscape:cy="32"
   inkscape:window-x="-8"
   inkscape:window-y="-8"
   inkscape:window-maximized="1"
   inkscape:current-layer="Layer_1" />
<path
   stroke-miterlimit="10"
   d="M 45.013042,50 55,50 c 4.565,0 8,-3.582 8,-8 0,-4.418 -3.435,-8 -8,-8 C 55,22.954 45.48,14 34.066,14 23.966,14 14.8,20.732 13,30 13,30 12.169,30 11.333,30 5.626,30 1,34.477 1,40 1,45.523 5.293,50 11,50 l 9.204179,0"
   id="path3"
   inkscape:connector-curvature="0"
   style="fill:none;stroke:#000000;stroke-width:2;stroke-miterlimit:10"
   sodipodi:nodetypes="csscscsssc" />
<polyline
   stroke-miterlimit="10"
   points="40,37 32,45   24,37 "
   id="polyline5"
   transform="matrix(1,0,0,-1,0.75146771,75.46277)"
   style="fill:none;stroke:#000000;stroke-width:2;stroke-linejoin:bevel;stroke-miterlimit:10" />
<g
   id="g7"
   transform="matrix(1,0,0,1.1001089,0.75146771,3.0089087)">
	<line
   stroke-miterlimit="10"
   x1="32"
   y1="25.070223"
   x2="32"
   y2="45.070221"
   id="line9"
   style="fill:none;stroke:#000000;stroke-width:2;stroke-miterlimit:10" />
</g>
</svg>