<?xml version="1.0" encoding="UTF-8" standalone="no"?>
<svg
   width="64"
   height="64"
   viewBox="0 0 64 64"
   version="1.1"
   id="s1"
   sodipodi:docname="select_by_qrcode.svg"
   inkscape:version="1.2 (dc2aedaf03, 2022-05-15)"
   xmlns:inkscape="http://www.inkscape.org/namespaces/inkscape"
   xmlns:sodipodi="http://sodipodi.sourceforge.net/DTD/sodipodi-0.dtd"
   xmlns:xlink="http://www.w3.org/1999/xlink"
   xmlns="http://www.w3.org/2000/svg"
   xmlns:svg="http://www.w3.org/2000/svg"
   xmlns:rdf="http://www.w3.org/1999/02/22-rdf-syntax-ns#"
   xmlns:cc="http://creativecommons.org/ns#"
   xmlns:dc="http://purl.org/dc/elements/1.1/">
  <defs
     id="defs34" />
  <sodipodi:namedview
     id="namedview32"
     pagecolor="#ffffff"
     bordercolor="#666666"
     borderopacity="1.0"
     inkscape:showpageshadow="2"
     inkscape:pageopacity="0.0"
     inkscape:pagecheckerboard="0"
     inkscape:deskcolor="#d1d1d1"
     showgrid="true"
     inkscape:zoom="10.429825"
     inkscape:cx="25.407905"
     inkscape:cy="32.023548"
     inkscape:window-width="1920"
     inkscape:window-height="935"
     inkscape:window-x="0"
     inkscape:window-y="27"
     inkscape:window-maximized="1"
     inkscape:current-layer="s1">
    <inkscape:grid
       type="xygrid"
       id="grid1442" />
  </sodipodi:namedview>
  <title
     id="title2">QR coder</title>
  <desc
     id="desc4">Manually edited diagram of qr code</desc>
  <!--  <rect x="0" y="0" width="300" height="422" stroke="none" fill="#CFA"/>  -->
  <g
     transform="scale(2)"
     fill="none"
     stroke="#000000"
     stroke-width="2"
     stroke-linecap="butt"
     id="g29"
     style="stroke:#000000;stroke-opacity:0.64273757">
    <path
       id="A"
       d="m 3,3 h 8 v 8 H 3 Z m 3,4 h 2"
       style="stroke:#000000;stroke-opacity:0.64273757" />
    <use
       xlink:href="#A"
       x="18"
       y="0"
       id="use7"
       style="stroke:#000000;stroke-opacity:0.64273757" />
    <use
       xlink:href="#A"
       x="0"
       y="18"
       id="use9"
       style="stroke:#000000;stroke-opacity:0.64273757" />
    <path
       d="m 18,3 h -3 v 4 h 2 v 4 h -2 v 3"
       id="path11"
       style="stroke:#000000;stroke-opacity:0.64273757" />
    <path
       d="m 2,15 h 2 m 2,0 h 4 m 6,0 h 2 m 2,0 h 4 m 4,0 h 2"
       id="path13"
       style="stroke:#000000;stroke-opacity:0.64273757" />
    <path
       d="m 4,17 h 2 m 2,0 h 8 m 6,0 h 2 m 2,0 h 4"
       id="path15"
       style="stroke:#000000;stroke-opacity:0.64273757" />
    <path
       d="m 14,19 h 2 m 2,0 h 2 m 6,0 h 2"
       id="path17"
       style="stroke:#000000;stroke-opacity:0.64273757" />
    <path
       d="m 16,21 h 2 m 2,0 h 8"
       id="path19"
       style="stroke:#000000;stroke-opacity:0.64273757" />
    <path
       d="m 14,23 h 2 m 2,0 h 2 m 4,0 h 2 m 2,0 h 2"
       id="path21"
       style="stroke:#000000;stroke-opacity:0.64273757" />
    <path
       d="m 14,25 h 4 m 2,0 h 2 m 2,0 h 4"
       id="path23"
       style="stroke:#000000;stroke-opacity:0.64273757" />
    <path
       d="m 14,27 h 2 m 6,0 h 2 m 4,0 h 2"
       id="path25"
       style="stroke:#000000;stroke-opacity:0.64273757" />
    <path
       d="m 16,29 h 8 m 2,0 h 2"
       id="path27"
       style="stroke:#000000;stroke-opacity:0.64273757" />
  </g>
  <!-- vim:nowrap:sw=2:so=2:et:ai: -->
  <metadata
     id="metadata714">
    <rdf:RDF>
      <cc:Work
         rdf:about="">
        <dc:title>QR coder</dc:title>
      </cc:Work>
    </rdf:RDF>
  </metadata>
</svg>
