<?xml version="1.0" encoding="UTF-8" standalone="no"?>
<!--
tags: [video, photo, aperture, camera, content, entertainment, multimedia, broadcast, audio]
category: Media
version: "1.0"
unicode: "ea54"
-->

<svg
   width="24"
   height="24"
   viewBox="0 0 24 24"
   fill="none"
   stroke="currentColor"
   stroke-width="2"
   stroke-linecap="round"
   stroke-linejoin="round"
   version="1.1"
   id="svg2"
   sodipodi:docname="activate-camera.svg"
   inkscape:version="1.4.4 (unknown)"
   xmlns:inkscape="http://www.inkscape.org/namespaces/inkscape"
   xmlns:sodipodi="http://sodipodi.sourceforge.net/DTD/sodipodi-0.dtd"
   xmlns="http://www.w3.org/2000/svg"
   xmlns:svg="http://www.w3.org/2000/svg">
  <defs
     id="defs2" />
  <sodipodi:namedview
     id="namedview2"
     pagecolor="#ffffff"
     bordercolor="#000000"
     borderopacity="0.25"
     inkscape:showpageshadow="2"
     inkscape:pageopacity="0.0"
     inkscape:pagecheckerboard="0"
     inkscape:deskcolor="#d1d1d1"
     showgrid="true"
     inkscape:zoom="23.422912"
     inkscape:cx="11.890067"
     inkscape:cy="14.387622"
     inkscape:window-width="1920"
     inkscape:window-height="1011"
     inkscape:window-x="0"
     inkscape:window-y="0"
     inkscape:window-maximized="1"
     inkscape:current-layer="svg2">
    <inkscape:grid
       id="grid2"
       units="px"
       originx="0"
       originy="0"
       spacingx="1"
       spacingy="1"
       empcolor="#0099e5"
       empopacity="0.30196078"
       color="#0099e5"
       opacity="0.14901961"
       empspacing="4"
       enabled="true"
       visible="true" />
  </sodipodi:namedview>
  <path
     d="M 5,7 H 6 C 7.1045695,7 8,6.1045695 8,5 8,4.4477153 8.4477153,4 9,4 h 6 c 0.552285,0 1,0.4477153 1,1 0,1.1045695 0.895431,2 2,2 h 1 c 1.104569,0 2,0.8954305 2,2 v 4 m -8,7 H 5 C 3.8954305,20 3,19.104569 3,18 V 9 C 3,7.8954305 3.8954305,7 5,7"
     id="path1"
     sodipodi:nodetypes="cssssssssccsssc" />
  <path
     d="M9 13a3 3 0 1 0 6 0a3 3 0 0 0 -6 0"
     id="path2" />
  <path
     style="fill:none;stroke:#000000;stroke-width:2;stroke-linecap:round;stroke-linejoin:round;stroke-miterlimit:3.8"
     d="m 17,21 v -4 h 4"
     id="path3"
     sodipodi:nodetypes="ccc" />
  <path
     style="fill:none;stroke:#000000;stroke-width:2;stroke-linecap:round;stroke-linejoin:round;stroke-miterlimit:3.8"
     d="m 17,17 4,4"
     id="path4"
     sodipodi:nodetypes="cc" />
</svg>
