<svg xmlns="http://www.w3.org/2000/svg" version="1.1" viewBox="0 0 24 24" id="svg1" inkscape:version="1.4.4 (unknown)" sodipodi:docname="bimrocket-icon.svg" width="24" height="24" xmlns:inkscape="http://www.inkscape.org/namespaces/inkscape" xmlns:sodipodi="http://sodipodi.sourceforge.net/DTD/sodipodi-0.dtd" xmlns:svg="http://www.w3.org/2000/svg"><metadata><rdf:RDF xmlns:rdf="http://www.w3.org/1999/02/22-rdf-syntax-ns#" xmlns:dc="http://purl.org/dc/elements/1.1/"><rdf:Description><dc:creator>RealFaviconGenerator</dc:creator><dc:source>https://realfavicongenerator.net</dc:source></rdf:Description></rdf:RDF></metadata><sodipodi:namedview id="namedview1" pagecolor="#ffffff" bordercolor="#000000" borderopacity="0.25" inkscape:showpageshadow="2" inkscape:pageopacity="0.0" inkscape:pagecheckerboard="0" inkscape:deskcolor="#d1d1d1" inkscape:document-units="px" showgrid="true" inkscape:zoom="11.313709" inkscape:cx="15.335378" inkscape:cy="11.490485" inkscape:window-width="1920" inkscape:window-height="1011" inkscape:window-x="0" inkscape:window-y="0" inkscape:window-maximized="1" inkscape:current-layer="layer1">
    <inkscape:grid id="grid1" units="px" originx="0" originy="0" spacingx="0.5" spacingy="0.5" empcolor="#0099e5" empopacity="0.30196078" color="#0099e5" opacity="0.14901961" empspacing="8" enabled="true" visible="true"></inkscape:grid>
  </sodipodi:namedview><defs id="defs1"></defs><g inkscape:label="Capa 1" inkscape:groupmode="layer" id="layer1">
    <path id="house" d="M 12,0.99999994 4,8 V 19 H 8.5 V 18 C 8.5,16.625 10,16 10,14.5 V 11 c 0,-2 2,-5 2,-5 0,0 2,3 2,5 v 3.5 c 0,1.5 1.5,2 1.5,3.5 v 1 H 20 V 8 Z" sodipodi:nodetypes="ccccssscssscccc" fill="currentColor" stroke="none"></path>
    <path d="m 12,17 c 1,0 1.5,1 1.5,2.5 0,2 -1.5,3.5 -1.5,3.5 0,0 -1.5,-1.5 -1.5,-3.5 C 10.5,18 11,17 12,17 Z" id="flame" sodipodi:nodetypes="sscss" fill="currentColor" stroke="none" style="fill-opacity:1"></path>
  </g></svg>