<?xml version="1.0" encoding="UTF-8" standalone="no"?>
<!-- Generator: Adobe Illustrator 16.0.0, SVG Export Plug-In . SVG Version: 6.00 Build 0)  -->

<svg
   version="1.1"
   id="Layer_1"
   x="0px"
   y="0px"
   width="64px"
   height="64px"
   viewBox="0 0 64 64"
   enable-background="new 0 0 64 64"
   xml:space="preserve"
   inkscape:version="1.2 (dc2aedaf03, 2022-05-15)"
   sodipodi:docname="cloner.svg"
   inkscape:export-filename="/Users/realor/NetBeansProjects/threecad/web/css/images/outliner/group.png"
   inkscape:export-xdpi="22"
   inkscape:export-ydpi="22"
   xmlns:inkscape="http://www.inkscape.org/namespaces/inkscape"
   xmlns:sodipodi="http://sodipodi.sourceforge.net/DTD/sodipodi-0.dtd"
   xmlns="http://www.w3.org/2000/svg"
   xmlns:svg="http://www.w3.org/2000/svg"
   xmlns:rdf="http://www.w3.org/1999/02/22-rdf-syntax-ns#"
   xmlns:cc="http://creativecommons.org/ns#"
   xmlns:dc="http://purl.org/dc/elements/1.1/"><metadata
     id="metadata3842"><rdf:RDF><cc:Work
         rdf:about=""><dc:format>image/svg+xml</dc:format><dc:type
           rdf:resource="http://purl.org/dc/dcmitype/StillImage" /><dc:title /></cc:Work></rdf:RDF></metadata><defs
     id="defs3840" /><sodipodi:namedview
     pagecolor="#ffffff"
     bordercolor="#666666"
     borderopacity="1"
     objecttolerance="10000"
     gridtolerance="10000"
     guidetolerance="10"
     inkscape:pageopacity="0"
     inkscape:pageshadow="2"
     inkscape:window-width="1920"
     inkscape:window-height="935"
     id="namedview3838"
     showgrid="true"
     inkscape:zoom="2.6792718"
     inkscape:cx="24.633559"
     inkscape:cy="43.668583"
     inkscape:window-x="0"
     inkscape:window-y="27"
     inkscape:window-maximized="1"
     inkscape:current-layer="Layer_1"
     inkscape:showpageshadow="2"
     inkscape:pagecheckerboard="0"
     inkscape:deskcolor="#d1d1d1"><inkscape:grid
       type="xygrid"
       id="grid3844"
       empspacing="4" /></sodipodi:namedview><path
     style="color:#000000;fill:#4d4d4d;fill-opacity:1;stroke:none;stroke-linecap:square;stroke-linejoin:round;stroke-opacity:1;paint-order:markers fill stroke"
     d="M 32,8 C 18.472367,8 12,20 12,32 12,44 19,56 32,56 45,56 52,44 52,32 52,20 45.527633,8 32,8 Z m 0,4 c 12,0 15.860836,8.074734 16,20 0,9 -4,20 -16,20 C 20,52 16,41 16,32 16,20 19.898672,12.005324 32,12 Z"
     id="path896"
     sodipodi:nodetypes="sssssccccc" /><ellipse
     style="fill:none;stroke:#4d4d4d;stroke-width:2.87008;stroke-linecap:square;stroke-linejoin:round;stroke-dasharray:none;stroke-opacity:1;paint-order:markers fill stroke"
     id="path1158"
     cx="27.002337"
     cy="18.27718"
     rx="3.8066053"
     ry="2.5649598"
     transform="rotate(20)" /><ellipse
     style="fill:none;stroke:#4d4d4d;stroke-width:2.87008;stroke-linecap:square;stroke-linejoin:round;stroke-dasharray:none;stroke-opacity:1;paint-order:markers fill stroke"
     id="path1158-6"
     cx="33.137993"
     cy="40.16647"
     rx="3.8066053"
     ry="2.5649598"
     transform="rotate(-20)" /><path
     style="fill:none;stroke:#4d4d4d;stroke-width:4;stroke-linecap:butt;stroke-linejoin:miter;stroke-dasharray:none;stroke-opacity:1"
     d="m 32,45 v 7"
     id="path1277"
     sodipodi:nodetypes="cc" /><path
     style="fill:#000000;fill-opacity:0;stroke:#4d4d4d;stroke-width:4;stroke-linecap:round;stroke-linejoin:miter;stroke-dasharray:none;stroke-opacity:1"
     d="m 26,42 6,3 6,-3"
     id="path2448"
     sodipodi:nodetypes="ccc" /><path
     style="fill:none;stroke:#4d4d4d;stroke-width:3;stroke-linecap:round;stroke-linejoin:round;stroke-dasharray:none;stroke-opacity:1"
     d="m 25.999998,10.216396 c 0,0 -12.270379,-2.9779806 -18.0000009,3.209308 -3.7352566,4.033618 -4,12.999998 -4,12.999998 0,0 6.9999999,-1 11.9999959,-7.499469 2.87435,-3.736353 10.000005,-8.709837 10.000005,-8.709837"
     id="path461"
     sodipodi:nodetypes="cscsc" /><path
     style="fill:none;stroke:#4d4d4d;stroke-width:3;stroke-linecap:round;stroke-linejoin:round;stroke-dasharray:none;stroke-opacity:1"
     d="m 38.000002,10.216397 c 0,0 12.270379,-2.9779815 18.000001,3.209307 3.735257,4.033618 4,12.999998 4,12.999998 0,0 -7,-1 -11.999996,-7.499469 -2.87435,-3.736353 -10.000005,-8.709836 -10.000005,-8.709836"
     id="path461-3"
     sodipodi:nodetypes="cscsc" /></svg>
