<?xml version="1.0" encoding="UTF-8" standalone="no"?>
<svg
   xmlns:dc="http://purl.org/dc/elements/1.1/"
   xmlns:cc="http://creativecommons.org/ns#"
   xmlns:rdf="http://www.w3.org/1999/02/22-rdf-syntax-ns#"
   xmlns:svg="http://www.w3.org/2000/svg"
   xmlns="http://www.w3.org/2000/svg"
   xmlns:sodipodi="http://sodipodi.sourceforge.net/DTD/sodipodi-0.dtd"
   xmlns:inkscape="http://www.inkscape.org/namespaces/inkscape"
   version="1.0"
   id="Layer_1"
   x="0px"
   y="0px"
   width="64px"
   height="64px"
   viewBox="0 0 64 64"
   enable-background="new 0 0 64 64"
   xml:space="preserve"
   inkscape:version="0.92.5 (2060ec1f9f, 2020-04-08)"
   sodipodi:docname="default.svg"
   inkscape:export-filename="C:\Projects\threecad\web\css\images\orbit.png"
   inkscape:export-xdpi="45"
   inkscape:export-ydpi="45"><metadata
     id="metadata3009"><rdf:RDF><cc:Work
         rdf:about=""><dc:format>image/svg+xml</dc:format><dc:type
           rdf:resource="http://purl.org/dc/dcmitype/StillImage" /><dc:title /></cc:Work></rdf:RDF></metadata><defs
     id="defs3007" /><sodipodi:namedview
     pagecolor="#ffffff"
     bordercolor="#666666"
     borderopacity="1"
     objecttolerance="10000"
     gridtolerance="10000"
     guidetolerance="10"
     inkscape:pageopacity="0"
     inkscape:pageshadow="2"
     inkscape:window-width="1920"
     inkscape:window-height="948"
     id="namedview3005"
     showgrid="true"
     inkscape:zoom="11.291611"
     inkscape:cx="7.8476312"
     inkscape:cy="34.06858"
     inkscape:window-x="0"
     inkscape:window-y="27"
     inkscape:window-maximized="1"
     inkscape:current-layer="Layer_1"
     inkscape:snap-global="true"
     inkscape:document-rotation="0"
     inkscape:snap-nodes="false"><inkscape:grid
       type="xygrid"
       id="grid3011"
       empspacing="4" /></sodipodi:namedview><path
     style="fill:none;fill-opacity:1;stroke:#4d4d4d;stroke-width:2;stroke-linecap:round;stroke-linejoin:miter;stroke-miterlimit:4;stroke-dasharray:none;stroke-dashoffset:1.51180911;stroke-opacity:1"
     id="path815"
     sodipodi:type="arc"
     sodipodi:cx="32"
     sodipodi:cy="32"
     sodipodi:rx="7.0258255"
     sodipodi:ry="7.1143866"
     sodipodi:start="3.5516054"
     sodipodi:end="3.4802076"
     sodipodi:open="true"
     d="m 25.556505,29.164056 a 7.0258255,7.1143866 0 0 1 9.128684,-3.73835 7.0258255,7.1143866 0 0 1 3.854159,9.175555 7.0258255,7.1143866 0 0 1 -8.991102,4.06589 7.0258255,7.1143866 0 0 1 -4.175115,-9.030415" /><path
     style="fill:none;fill-opacity:1;stroke:#4d4d4d;stroke-width:4;stroke-linecap:round;stroke-linejoin:miter;stroke-miterlimit:4;stroke-dasharray:none;stroke-dashoffset:1.51180911;stroke-opacity:1"
     id="path817"
     sodipodi:type="arc"
     sodipodi:cx="32"
     sodipodi:cy="32"
     sodipodi:rx="14"
     sodipodi:ry="26"
     sodipodi:start="3.5516054"
     sodipodi:end="3.5482146"
     sodipodi:open="true"
     d="M 19.16038,21.635854 A 14,26 0 0 1 37.569808,8.1462136 14,26 0 0 1 44.849063,42.323705 14,26 0 0 1 26.451976,55.871289 14,26 0 0 1 19.14153,21.716767" /><path
     style="fill:none;fill-opacity:1;stroke:#4d4d4d;stroke-width:4;stroke-linecap:round;stroke-linejoin:miter;stroke-miterlimit:4;stroke-dasharray:none;stroke-dashoffset:1.51180911;stroke-opacity:1"
     id="path817-6"
     sodipodi:type="arc"
     sodipodi:cx="32.016743"
     sodipodi:cy="-32.060204"
     sodipodi:rx="14"
     sodipodi:ry="26"
     sodipodi:start="3.5516054"
     sodipodi:end="3.5482146"
     sodipodi:open="true"
     d="M 19.177122,-42.42435 A 14,26 0 0 1 37.586551,-55.91399 14,26 0 0 1 44.865806,-21.736499 14,26 0 0 1 26.468719,-8.1889143 14,26 0 0 1 19.158273,-42.343437"
     transform="rotate(90)" /></svg>