<?xml version="1.0" encoding="UTF-8" standalone="no"?>
<svg
   xmlns:dc="http://purl.org/dc/elements/1.1/"
   xmlns:cc="http://creativecommons.org/ns#"
   xmlns:rdf="http://www.w3.org/1999/02/22-rdf-syntax-ns#"
   xmlns:svg="http://www.w3.org/2000/svg"
   xmlns="http://www.w3.org/2000/svg"
   xmlns:sodipodi="http://sodipodi.sourceforge.net/DTD/sodipodi-0.dtd"
   xmlns:inkscape="http://www.inkscape.org/namespaces/inkscape"
   version="1.0"
   id="Layer_1"
   x="0px"
   y="0px"
   width="64px"
   height="64px"
   viewBox="0 0 64 64"
   enable-background="new 0 0 64 64"
   xml:space="preserve"
   inkscape:version="1.0.1 (3bc2e813f5, 2020-09-07)"
   sodipodi:docname="default.svg"
   inkscape:export-filename="C:\Projects\threecad\web\css\images\orbit.png"
   inkscape:export-xdpi="45"
   inkscape:export-ydpi="45"><metadata
     id="metadata3009"><rdf:RDF><cc:Work
         rdf:about=""><dc:format>image/svg+xml</dc:format><dc:type
           rdf:resource="http://purl.org/dc/dcmitype/StillImage" /><dc:title /></cc:Work></rdf:RDF></metadata><defs
     id="defs3007" /><sodipodi:namedview
     pagecolor="#ffffff"
     bordercolor="#666666"
     borderopacity="1"
     objecttolerance="10"
     gridtolerance="10"
     guidetolerance="10"
     inkscape:pageopacity="0"
     inkscape:pageshadow="2"
     inkscape:window-width="1920"
     inkscape:window-height="948"
     id="namedview3005"
     showgrid="true"
     inkscape:zoom="11.291611"
     inkscape:cx="32.467678"
     inkscape:cy="30.968933"
     inkscape:window-x="0"
     inkscape:window-y="27"
     inkscape:window-maximized="1"
     inkscape:current-layer="Layer_1"
     inkscape:snap-global="true"
     inkscape:document-rotation="0"><inkscape:grid
       type="xygrid"
       id="grid3011" /></sodipodi:namedview><path
     sodipodi:type="arc"
     style="fill:none;stroke:#000000;stroke-width:0.530639;stroke-linecap:round;stroke-linejoin:miter;stroke-miterlimit:4;stroke-dasharray:none;stroke-dashoffset:0;stroke-opacity:1"
     id="path3019"
     sodipodi:cx="29.5"
     sodipodi:cy="33"
     sodipodi:rx="6.7582603"
     sodipodi:ry="5.0573225"
     d="m 23.301871,30.984083 a 6.7582603,5.0573225 0 0 1 8.890855,-2.622642 6.7582603,5.0573225 0 0 1 3.506453,6.652668 6.7582603,5.0573225 0 0 1 -8.889488,2.625236 6.7582603,5.0573225 0 0 1 -3.509919,-6.651645"
     sodipodi:start="3.5515973"
     sodipodi:end="3.5508175"
     transform="matrix(4.4447382,0,-0.01574721,3.1960654,-98.561046,-73.546482)"
     sodipodi:arc-type="arc"
     sodipodi:open="true" /><path
     sodipodi:type="arc"
     style="fill:none;stroke:#000000;stroke-width:0.530639;stroke-linecap:round;stroke-linejoin:miter;stroke-miterlimit:4;stroke-dasharray:none;stroke-dashoffset:0;stroke-opacity:1"
     id="path3019-1"
     sodipodi:cx="29.5"
     sodipodi:cy="33"
     sodipodi:rx="6.7541227"
     sodipodi:ry="5.0573225"
     d="m 23.305666,30.984083 a 6.7541227,5.0573225 0 0 1 8.886068,-2.622429 6.7541227,5.0573225 0 0 1 3.503079,6.653438 6.7541227,5.0573225 0 0 1 -8.885445,2.623612 6.7541227,5.0573225 0 0 1 -3.50466,-6.652971"
     sodipodi:start="3.5515973"
     sodipodi:end="3.5512414"
     sodipodi:open="true"
     transform="matrix(0,-4.4447382,3.1960654,0.01574721,-73.588084,162.57923)"
     sodipodi:arc-type="arc" /><path
     sodipodi:type="arc"
     style="fill:none;stroke:#000000;stroke-width:2;stroke-linecap:round;stroke-linejoin:miter;stroke-miterlimit:4;stroke-dasharray:none;stroke-dashoffset:0;stroke-opacity:1"
     id="path3813"
     sodipodi:cx="32"
     sodipodi:cy="33"
     sodipodi:rx="4"
     sodipodi:ry="4"
     d="m 28.331524,31.405546 a 4,4 0 0 1 5.25845,-2.075966 4,4 0 0 1 2.082384,5.255912 4,4 0 0 1 -5.253365,2.088799 4,4 0 0 1 -2.095212,-5.250811"
     sodipodi:start="3.5515973"
     sodipodi:end="3.5467138"
     sodipodi:open="true"
     transform="translate(0.17712264,-1.2398585)"
     sodipodi:arc-type="arc" /></svg>
