<?xml version="1.0" encoding="UTF-8" standalone="no"?>
<!-- Generator: Adobe Illustrator 16.0.0, SVG Export Plug-In . SVG Version: 6.00 Build 0)  -->

<svg
   version="1.1"
   id="Layer_1"
   x="0px"
   y="0px"
   width="64px"
   height="64px"
   viewBox="0 0 64 64"
   enable-background="new 0 0 64 64"
   xml:space="preserve"
   inkscape:version="1.3.2 (091e20ef0f, 2023-11-25)"
   sodipodi:docname="points.svg"
   inkscape:export-filename="/Users/realor/NetBeansProjects/threecad/web/css/images/outliner/group.png"
   inkscape:export-xdpi="22"
   inkscape:export-ydpi="22"
   xmlns:inkscape="http://www.inkscape.org/namespaces/inkscape"
   xmlns:sodipodi="http://sodipodi.sourceforge.net/DTD/sodipodi-0.dtd"
   xmlns="http://www.w3.org/2000/svg"
   xmlns:svg="http://www.w3.org/2000/svg"
   xmlns:rdf="http://www.w3.org/1999/02/22-rdf-syntax-ns#"
   xmlns:cc="http://creativecommons.org/ns#"
   xmlns:dc="http://purl.org/dc/elements/1.1/"><metadata
     id="metadata3842"><rdf:RDF><cc:Work
         rdf:about=""><dc:format>image/svg+xml</dc:format><dc:type
           rdf:resource="http://purl.org/dc/dcmitype/StillImage" /><dc:title /></cc:Work></rdf:RDF></metadata><defs
     id="defs3840" /><sodipodi:namedview
     pagecolor="#ffffff"
     bordercolor="#666666"
     borderopacity="1"
     objecttolerance="10000"
     gridtolerance="10000"
     guidetolerance="10"
     inkscape:pageopacity="0"
     inkscape:pageshadow="2"
     inkscape:window-width="1920"
     inkscape:window-height="1016"
     id="namedview3838"
     showgrid="true"
     inkscape:zoom="5.3585435"
     inkscape:cx="37.136957"
     inkscape:cy="37.696811"
     inkscape:window-x="0"
     inkscape:window-y="27"
     inkscape:window-maximized="1"
     inkscape:current-layer="Layer_1"
     inkscape:showpageshadow="2"
     inkscape:pagecheckerboard="0"
     inkscape:deskcolor="#d1d1d1"><inkscape:grid
       type="xygrid"
       id="grid3844"
       empspacing="4"
       originx="0"
       originy="0"
       spacingy="1"
       spacingx="1"
       units="px"
       visible="true" /></sodipodi:namedview><path
     style="fill:#4d4d4d;fill-opacity:1;stroke:none;stroke-width:0.784099;stroke-linecap:round;stroke-linejoin:round;stroke-opacity:1;paint-order:markers fill stroke"
     id="path1"
     sodipodi:type="arc"
     sodipodi:cx="32"
     sodipodi:cy="12"
     sodipodi:rx="6"
     sodipodi:ry="6"
     sodipodi:start="3.138617"
     sodipodi:end="3.1256151"
     sodipodi:open="true"
     sodipodi:arc-type="arc"
     d="m 26.000027,12.017854 a 6,6 0 0 1 5.962616,-6.0177377 6,6 0 0 1 6.037088,5.9430247 6,6 0 0 1 -5.923371,6.056373 6,6 0 0 1 -6.075594,-5.903653" /><path
     style="fill:#4d4d4d;fill-opacity:1;stroke:none;stroke-width:0.784099;stroke-linecap:round;stroke-linejoin:round;stroke-opacity:1;paint-order:markers fill stroke"
     id="path1-7"
     sodipodi:type="arc"
     sodipodi:cx="32"
     sodipodi:cy="32"
     sodipodi:rx="6"
     sodipodi:ry="6"
     sodipodi:start="3.138617"
     sodipodi:end="3.1256151"
     sodipodi:open="true"
     sodipodi:arc-type="arc"
     d="m 26.000027,32.017854 a 6,6 0 0 1 5.962616,-6.017738 6,6 0 0 1 6.037088,5.943025 6,6 0 0 1 -5.923371,6.056373 6,6 0 0 1 -6.075594,-5.903653" /><path
     style="fill:#4d4d4d;fill-opacity:1;stroke:none;stroke-width:0.781173;stroke-linecap:round;stroke-linejoin:round;stroke-opacity:1;paint-order:markers fill stroke"
     id="path1-7-5"
     sodipodi:type="arc"
     sodipodi:cx="32"
     sodipodi:cy="52.044689"
     sodipodi:rx="6"
     sodipodi:ry="5.9553118"
     sodipodi:start="3.138617"
     sodipodi:end="3.1256151"
     sodipodi:open="true"
     sodipodi:arc-type="arc"
     d="m 26.000027,52.06241 a 6,5.9553118 0 0 1 5.962616,-5.972917 6,5.9553118 0 0 1 6.037088,5.898761 6,5.9553118 0 0 1 -5.923371,6.011265 6,5.9553118 0 0 1 -6.075594,-5.859683" /><path
     style="fill:#4d4d4d;fill-opacity:1;stroke:none;stroke-width:0.784099;stroke-linecap:round;stroke-linejoin:round;stroke-opacity:1;paint-order:markers fill stroke"
     id="path1-3"
     sodipodi:type="arc"
     sodipodi:cx="13.810795"
     sodipodi:cy="42"
     sodipodi:rx="6"
     sodipodi:ry="6"
     sodipodi:start="3.138617"
     sodipodi:end="3.1256151"
     sodipodi:open="true"
     sodipodi:arc-type="arc"
     d="m 7.8108214,42.017854 a 6,6 0 0 1 5.9626166,-6.017738 6,6 0 0 1 6.037087,5.943025 6,6 0 0 1 -5.92337,6.056373 6,6 0 0 1 -6.0755943,-5.903653" /><path
     style="fill:#4d4d4d;fill-opacity:1;stroke:none;stroke-width:0.784099;stroke-linecap:round;stroke-linejoin:round;stroke-opacity:1;paint-order:markers fill stroke"
     id="path1-3-3"
     sodipodi:type="arc"
     sodipodi:cx="13.810795"
     sodipodi:cy="22"
     sodipodi:rx="5.999999"
     sodipodi:ry="6"
     sodipodi:start="3.138617"
     sodipodi:end="3.1256151"
     sodipodi:open="true"
     sodipodi:arc-type="arc"
     d="m 7.8108223,22.017854 a 5.999999,6 0 0 1 5.9626157,-6.017738 5.999999,6 0 0 1 6.037086,5.943025 5.999999,6 0 0 1 -5.923369,6.056373 5.999999,6 0 0 1 -6.0755934,-5.903653" /><path
     style="fill:#4d4d4d;fill-opacity:1;stroke:none;stroke-width:0.784099;stroke-linecap:round;stroke-linejoin:round;stroke-opacity:1;paint-order:markers fill stroke"
     id="path1-3-3-5"
     sodipodi:type="arc"
     sodipodi:cx="50.189205"
     sodipodi:cy="22"
     sodipodi:rx="6"
     sodipodi:ry="6"
     sodipodi:start="3.138617"
     sodipodi:end="3.1256151"
     sodipodi:open="true"
     sodipodi:arc-type="arc"
     d="m 44.189232,22.017854 a 6,6 0 0 1 5.962617,-6.017738 6,6 0 0 1 6.037087,5.943025 6,6 0 0 1 -5.92337,6.056373 6,6 0 0 1 -6.075595,-5.903653" /><path
     style="fill:#4d4d4d;fill-opacity:1;stroke:none;stroke-width:0.775056;stroke-linecap:round;stroke-linejoin:round;stroke-opacity:1;paint-order:markers fill stroke"
     id="path1-3-6"
     sodipodi:type="arc"
     sodipodi:cx="50"
     sodipodi:cy="42"
     sodipodi:rx="6"
     sodipodi:ry="5.8624306"
     sodipodi:start="3.138617"
     sodipodi:end="3.1256151"
     sodipodi:open="true"
     sodipodi:arc-type="arc"
     d="m 44.000027,42.017445 a 6,5.8624306 0 0 1 5.962616,-5.879762 6,5.8624306 0 0 1 6.037088,5.806762 6,5.8624306 0 0 1 -5.923371,5.917511 6,5.8624306 0 0 1 -6.075594,-5.768293" /></svg>
