<?xml version="1.0" encoding="UTF-8" standalone="no"?>
<!-- Generator: Adobe Illustrator 16.0.0, SVG Export Plug-In . SVG Version: 6.00 Build 0)  -->

<svg
   version="1.0"
   id="Layer_1"
   x="0px"
   y="0px"
   width="64px"
   height="64px"
   viewBox="0 0 64 64"
   enable-background="new 0 0 64 64"
   xml:space="preserve"
   inkscape:version="1.3.2 (091e20ef0f, 2023-11-25)"
   sodipodi:docname="IfcEarthworksFill.svg"
   inkscape:export-filename="/Users/realor/NetBeansProjects/smartcity/threecad/web/css/images/IFC/IfcBuilding.png"
   inkscape:export-xdpi="22.5"
   inkscape:export-ydpi="22.5"
   xmlns:inkscape="http://www.inkscape.org/namespaces/inkscape"
   xmlns:sodipodi="http://sodipodi.sourceforge.net/DTD/sodipodi-0.dtd"
   xmlns="http://www.w3.org/2000/svg"
   xmlns:svg="http://www.w3.org/2000/svg"
   xmlns:rdf="http://www.w3.org/1999/02/22-rdf-syntax-ns#"
   xmlns:cc="http://creativecommons.org/ns#"
   xmlns:dc="http://purl.org/dc/elements/1.1/"><metadata
     id="metadata3009"><rdf:RDF><cc:Work
         rdf:about=""><dc:format>image/svg+xml</dc:format><dc:type
           rdf:resource="http://purl.org/dc/dcmitype/StillImage" /></cc:Work></rdf:RDF></metadata><defs
     id="defs3007" /><sodipodi:namedview
     pagecolor="#ffffff"
     bordercolor="#666666"
     borderopacity="1"
     objecttolerance="10000"
     gridtolerance="10000"
     guidetolerance="10"
     inkscape:pageopacity="0"
     inkscape:pageshadow="2"
     inkscape:window-width="1920"
     inkscape:window-height="1016"
     id="namedview3005"
     showgrid="true"
     inkscape:zoom="15.968749"
     inkscape:cx="29.307242"
     inkscape:cy="32.125246"
     inkscape:window-x="0"
     inkscape:window-y="27"
     inkscape:window-maximized="1"
     inkscape:current-layer="Layer_1"
     inkscape:snap-global="true"
     inkscape:showpageshadow="2"
     inkscape:pagecheckerboard="0"
     inkscape:deskcolor="#d1d1d1"><inkscape:grid
       type="xygrid"
       id="grid3011"
       empspacing="4"
       originx="0"
       originy="0"
       spacingy="1"
       spacingx="1"
       units="px"
       visible="true" /></sodipodi:namedview><path
     style="fill:none;stroke:#4d4d4d;stroke-width:4;stroke-linecap:round;stroke-linejoin:round;stroke-miterlimit:4;stroke-dasharray:none;stroke-opacity:1"
     d="M 6,42 18,22 h 28 l 12,20"
     id="path3063"
     inkscape:connector-curvature="0"
     sodipodi:nodetypes="cccc" /><path
     style="fill:none;stroke:#4d4d4d;stroke-width:4;stroke-linecap:butt;stroke-linejoin:round;stroke-miterlimit:4;stroke-dasharray:none;stroke-opacity:1"
     d="M 6,42 H 58"
     id="path830"
     inkscape:connector-curvature="0"
     sodipodi:nodetypes="cc" /><path
     style="fill:#4d4d4d;stroke:#4d4d4d;stroke-width:0;stroke-linejoin:round;paint-order:markers fill stroke"
     id="path1-7"
     sodipodi:type="arc"
     sodipodi:cx="24.033991"
     sodipodi:cy="28"
     sodipodi:rx="2"
     sodipodi:ry="2"
     sodipodi:start="3.138617"
     sodipodi:end="3.1256151"
     sodipodi:open="true"
     sodipodi:arc-type="arc"
     d="m 22.034,28.005951 a 2,2 0 0 1 1.987539,-2.005912 2,2 0 0 1 2.012362,1.981008 2,2 0 0 1 -1.974457,2.018791 2,2 0 0 1 -2.025198,-1.967884" /><path
     style="fill:#4d4d4d;stroke:#4d4d4d;stroke-width:0;stroke-linejoin:round;paint-order:markers fill stroke"
     id="path1-5"
     sodipodi:type="arc"
     sodipodi:cx="40"
     sodipodi:cy="28"
     sodipodi:rx="2"
     sodipodi:ry="2"
     sodipodi:start="3.138617"
     sodipodi:end="3.1256151"
     sodipodi:open="true"
     sodipodi:arc-type="arc"
     d="m 38.000009,28.005951 a 2,2 0 0 1 1.987539,-2.005912 2,2 0 0 1 2.012362,1.981008 2,2 0 0 1 -1.974457,2.018791 2,2 0 0 1 -2.025198,-1.967884" /><path
     style="fill:#4d4d4d;stroke:#4d4d4d;stroke-width:0;stroke-linejoin:round;paint-order:markers fill stroke"
     id="path1-5-3"
     sodipodi:type="arc"
     sodipodi:cx="32"
     sodipodi:cy="28"
     sodipodi:rx="2"
     sodipodi:ry="2"
     sodipodi:start="3.138617"
     sodipodi:end="3.1256151"
     sodipodi:open="true"
     sodipodi:arc-type="arc"
     d="m 30.000009,28.005951 a 2,2 0 0 1 1.987539,-2.005912 2,2 0 0 1 2.012362,1.981008 2,2 0 0 1 -1.974457,2.018791 2,2 0 0 1 -2.025198,-1.967884" /><path
     style="fill:#4d4d4d;stroke:#4d4d4d;stroke-width:0;stroke-linejoin:round;paint-order:markers fill stroke"
     id="path1-3"
     sodipodi:type="arc"
     sodipodi:cx="28.007298"
     sodipodi:cy="36"
     sodipodi:rx="2"
     sodipodi:ry="2"
     sodipodi:start="3.138617"
     sodipodi:end="3.1256151"
     sodipodi:open="true"
     sodipodi:arc-type="arc"
     d="m 26.007306,36.005951 a 2,2 0 0 1 1.987539,-2.005912 2,2 0 0 1 2.012363,1.981008 2,2 0 0 1 -1.974457,2.018791 2,2 0 0 1 -2.025198,-1.967884" /><path
     style="fill:#4d4d4d;stroke:#4d4d4d;stroke-width:0;stroke-linejoin:round;paint-order:markers fill stroke"
     id="path1-3-67"
     sodipodi:type="arc"
     sodipodi:cx="20.014595"
     sodipodi:cy="36"
     sodipodi:rx="2"
     sodipodi:ry="2"
     sodipodi:start="3.138617"
     sodipodi:end="3.1256151"
     sodipodi:open="true"
     sodipodi:arc-type="arc"
     d="m 18.014604,36.005951 a 2,2 0 0 1 1.987539,-2.005912 2,2 0 0 1 2.012362,1.981008 2,2 0 0 1 -1.974456,2.018791 2,2 0 0 1 -2.025199,-1.967884" /><path
     style="fill:#4d4d4d;stroke:#4d4d4d;stroke-width:0;stroke-linejoin:round;paint-order:markers fill stroke"
     id="path1-3-6"
     sodipodi:type="arc"
     sodipodi:cx="36"
     sodipodi:cy="36"
     sodipodi:rx="2"
     sodipodi:ry="2"
     sodipodi:start="3.138617"
     sodipodi:end="3.1256151"
     sodipodi:open="true"
     sodipodi:arc-type="arc"
     d="m 34.000009,36.005951 a 2,2 0 0 1 1.987539,-2.005912 2,2 0 0 1 2.012362,1.981008 2,2 0 0 1 -1.974457,2.018791 2,2 0 0 1 -2.025198,-1.967884" /><path
     style="fill:#4d4d4d;stroke:#4d4d4d;stroke-width:0;stroke-linejoin:round;paint-order:markers fill stroke"
     id="path1-3-6-3"
     sodipodi:type="arc"
     sodipodi:cx="44.044197"
     sodipodi:cy="36"
     sodipodi:rx="2"
     sodipodi:ry="2"
     sodipodi:start="3.138617"
     sodipodi:end="3.1256151"
     sodipodi:open="true"
     sodipodi:arc-type="arc"
     d="m 42.044206,36.005951 a 2,2 0 0 1 1.987539,-2.005912 2,2 0 0 1 2.012362,1.981008 2,2 0 0 1 -1.974456,2.018791 2,2 0 0 1 -2.025199,-1.967884" /></svg>
