<?xml version="1.0" encoding="UTF-8" standalone="no"?>
<!-- Generator: Adobe Illustrator 16.0.0, SVG Export Plug-In . SVG Version: 6.00 Build 0)  -->

<svg
   version="1.0"
   id="Layer_1"
   x="0px"
   y="0px"
   width="64px"
   height="64px"
   viewBox="0 0 64 64"
   enable-background="new 0 0 64 64"
   xml:space="preserve"
   inkscape:version="1.4.2 (unknown)"
   sodipodi:docname="IfcProject.svg"
   inkscape:export-filename="/Users/realor/NetBeansProjects/smartcity/threecad/web/css/images/IFC/IfcBuilding.png"
   inkscape:export-xdpi="22.5"
   inkscape:export-ydpi="22.5"
   xmlns:inkscape="http://www.inkscape.org/namespaces/inkscape"
   xmlns:sodipodi="http://sodipodi.sourceforge.net/DTD/sodipodi-0.dtd"
   xmlns="http://www.w3.org/2000/svg"
   xmlns:svg="http://www.w3.org/2000/svg"
   xmlns:rdf="http://www.w3.org/1999/02/22-rdf-syntax-ns#"
   xmlns:cc="http://creativecommons.org/ns#"
   xmlns:dc="http://purl.org/dc/elements/1.1/"><metadata
     id="metadata3009"><rdf:RDF><cc:Work
         rdf:about=""><dc:format>image/svg+xml</dc:format><dc:type
           rdf:resource="http://purl.org/dc/dcmitype/StillImage" /><dc:title /></cc:Work></rdf:RDF></metadata><defs
     id="defs3007" /><sodipodi:namedview
     pagecolor="#ffffff"
     bordercolor="#666666"
     borderopacity="1"
     objecttolerance="10000"
     gridtolerance="10000"
     guidetolerance="10"
     inkscape:pageopacity="0"
     inkscape:pageshadow="2"
     inkscape:window-width="1920"
     inkscape:window-height="1011"
     id="namedview3005"
     showgrid="true"
     inkscape:zoom="15.968749"
     inkscape:cx="29.338553"
     inkscape:cy="34.066537"
     inkscape:window-x="0"
     inkscape:window-y="0"
     inkscape:window-maximized="1"
     inkscape:current-layer="Layer_1"
     inkscape:snap-global="true"
     inkscape:showpageshadow="2"
     inkscape:pagecheckerboard="0"
     inkscape:deskcolor="#d1d1d1"><inkscape:grid
       type="xygrid"
       id="grid3011"
       empspacing="4"
       originx="0"
       originy="0"
       spacingy="1"
       spacingx="1"
       units="px" /></sodipodi:namedview><rect
     style="fill:#4d4d4d;fill-opacity:1;stroke:none;stroke-width:1.33332;stroke-opacity:1"
     id="rect1"
     width="64"
     height="4"
     x="0"
     y="60" /><rect
     style="fill:#4d4d4d;fill-opacity:1;stroke:none;stroke-width:1.33333;stroke-opacity:1"
     id="rect1-6"
     width="64"
     height="4"
     x="0"
     y="0" /><rect
     style="fill:#4d4d4d;fill-opacity:1;stroke:none;stroke-width:1.24691;stroke-opacity:1"
     id="rect1-6-5"
     width="4"
     height="55.973259"
     x="0"
     y="4.0267401" /><rect
     style="fill:#4d4d4d;fill-opacity:1;stroke:none;stroke-width:1.24691;stroke-opacity:1"
     id="rect1-6-5-5"
     width="4"
     height="55.973263"
     x="60"
     y="4.0267386" /><path
     d="M 9.2766145,17.247672 H 23.191536 v 3.449534 h -4.638307 v 13.798137 h 4.638307 l -1.8e-5,3.449535 -13.9149035,0 V 34.495343 H 13.914922 V 20.697206 H 9.2766145 Z"
     id="text1"
     style="font-weight:bold;font-size:31.4216px;font-family:'Liberation Mono';-inkscape-font-specification:'Liberation Mono Bold';fill:#4d4d4d;stroke-width:1.0712"
     transform="scale(0.86238358,1.1595768)"
     aria-label="I"
     sodipodi:nodetypes="ccccccccccccc" /><path
     d="m 30.404557,22.101951 0,7.367317 h 8.687016 v 3.683658 h -8.687016 l 0,7.367317 H 26.061049 V 18.418292 h 15.202278 v 3.683659 z"
     id="text2"
     style="font-weight:bold;font-size:33.869px;font-family:'Liberation Mono';-inkscape-font-specification:'Liberation Mono Bold';fill:#4d4d4d;stroke-width:1.15463"
     transform="scale(0.92091459,1.085877)"
     aria-label="F"
     sodipodi:nodetypes="ccccccccccc" /><path
     d="m 44,32 c 0,5 1.007147,8 4,8 1.582415,0 3.238078,-1.410057 3.999983,-4.218683 l 3.999993,0.897839 C 54.700833,41.559719 51.741142,44 48,44 45.255193,44 43.599506,42.975543 42.153843,40.926627 40.717948,38.866201 40,35.856137 40,31.896435 40,23.96552 42.451779,20 48,20 c 1.816847,0 3.658102,0.564089 4.879102,1.692144 1.230767,1.128055 2.134307,2.802871 2.710619,5.024448 L 52,28 C 51.716728,26.779859 50.896198,25.692134 50.329655,25.02451 49.763111,24.345375 48.732599,24 48,24 c -2.656895,0 -4,2.739581 -4,8 z"
     id="text3"
     style="font-weight:bold;font-size:32.3557px;font-family:'Liberation Mono';-inkscape-font-specification:'Liberation Mono Bold';fill:#4d4d4d;stroke-width:1.11048"
     aria-label="C"
     sodipodi:nodetypes="ssccscssccccss" /></svg>
