<?xml version="1.0" encoding="UTF-8" standalone="no"?>
<!-- Created with Inkscape (http://www.inkscape.org/) -->

<svg
   width="16"
   height="16"
   viewBox="0 0 4.2333332 4.2333335"
   version="1.1"
   id="svg827"
   sodipodi:docname="menu_show.svg"
   inkscape:version="1.1.1 (3bf5ae0d25, 2021-09-20)"
   xmlns:inkscape="http://www.inkscape.org/namespaces/inkscape"
   xmlns:sodipodi="http://sodipodi.sourceforge.net/DTD/sodipodi-0.dtd"
   xmlns="http://www.w3.org/2000/svg"
   xmlns:svg="http://www.w3.org/2000/svg">
  <sodipodi:namedview
     id="namedview829"
     pagecolor="#74ffff"
     bordercolor="#666666"
     borderopacity="1.0"
     inkscape:pageshadow="2"
     inkscape:pageopacity="0"
     inkscape:pagecheckerboard="0"
     inkscape:document-units="mm"
     showgrid="true"
     units="px"
     inkscape:zoom="31.087347"
     inkscape:cx="3.9726774"
     inkscape:cy="9.9236516"
     inkscape:window-width="1920"
     inkscape:window-height="948"
     inkscape:window-x="0"
     inkscape:window-y="27"
     inkscape:window-maximized="1"
     inkscape:current-layer="layer1"
     inkscape:snap-bbox="true"
     inkscape:bbox-paths="true"
     inkscape:bbox-nodes="true"
     inkscape:snap-bbox-edge-midpoints="true"
     inkscape:snap-bbox-midpoints="true"
     inkscape:snap-intersection-paths="true"
     inkscape:object-paths="true"
     inkscape:object-nodes="true"
     inkscape:snap-smooth-nodes="true"
     inkscape:snap-midpoints="true">
    <inkscape:grid
       type="xygrid"
       id="grid896" />
  </sodipodi:namedview>
  <defs
     id="defs824" />
  <g
     inkscape:label="Capa 1"
     inkscape:groupmode="layer"
     id="layer1">
    <path
       id="circle2804"
       style="fill:#ffffff;stroke-width:0.529167;stroke-linecap:round;stroke-linejoin:bevel;paint-order:markers fill stroke"
       d="M 2.6458332,0.52916664 A 0.52916664,0.52916664 0 0 1 2.1166666,1.0583333 0.52916664,0.52916664 0 0 1 1.5874999,0.52916664 0.52916664,0.52916664 0 0 1 2.1166666,0 0.52916664,0.52916664 0 0 1 2.6458332,0.52916664 Z" />
    <path
       id="circle2809"
       style="fill:#ffffff;stroke-width:0.529167;stroke-linecap:round;stroke-linejoin:bevel;paint-order:markers fill stroke"
       d="M 2.6458332,2.1166666 A 0.52916664,0.52916664 0 0 1 2.1166666,2.6458332 0.52916664,0.52916664 0 0 1 1.5874999,2.1166666 0.52916664,0.52916664 0 0 1 2.1166666,1.5874999 0.52916664,0.52916664 0 0 1 2.6458332,2.1166666 Z" />
    <path
       id="circle2814"
       style="fill:#ffffff;stroke-width:0.529167;stroke-linecap:round;stroke-linejoin:bevel;paint-order:markers fill stroke"
       d="M 2.6458332,3.7041667 A 0.52916664,0.52916664 0 0 1 2.1166666,4.2333333 0.52916664,0.52916664 0 0 1 1.5874999,3.7041667 0.52916664,0.52916664 0 0 1 2.1166666,3.175 0.52916664,0.52916664 0 0 1 2.6458332,3.7041667 Z" />
  </g>
</svg>
