<?xml version="1.0" encoding="UTF-8" standalone="no"?>
<!-- Generator: Adobe Illustrator 16.0.0, SVG Export Plug-In . SVG Version: 6.00 Build 0)  -->

<svg
   version="1.1"
   id="Layer_1"
   x="0px"
   y="0px"
   width="64px"
   height="64px"
   viewBox="0 0 64 64"
   enable-background="new 0 0 64 64"
   xml:space="preserve"
   inkscape:version="1.3 (0e150ed6c4, 2023-07-21)"
   sodipodi:docname="info.svg"
   inkscape:export-filename="/Users/realor/NetBeansProjects/threecad/web/css/images/outliner/group.png"
   inkscape:export-xdpi="22"
   inkscape:export-ydpi="22"
   xmlns:inkscape="http://www.inkscape.org/namespaces/inkscape"
   xmlns:sodipodi="http://sodipodi.sourceforge.net/DTD/sodipodi-0.dtd"
   xmlns="http://www.w3.org/2000/svg"
   xmlns:svg="http://www.w3.org/2000/svg"
   xmlns:rdf="http://www.w3.org/1999/02/22-rdf-syntax-ns#"
   xmlns:cc="http://creativecommons.org/ns#"
   xmlns:dc="http://purl.org/dc/elements/1.1/"><metadata
     id="metadata3842"><rdf:RDF><cc:Work
         rdf:about=""><dc:format>image/svg+xml</dc:format><dc:type
           rdf:resource="http://purl.org/dc/dcmitype/StillImage" /></cc:Work></rdf:RDF></metadata><defs
     id="defs3840" /><sodipodi:namedview
     pagecolor="#ffffff"
     bordercolor="#666666"
     borderopacity="1"
     objecttolerance="10000"
     gridtolerance="10000"
     guidetolerance="10"
     inkscape:pageopacity="0"
     inkscape:pageshadow="2"
     inkscape:window-width="1920"
     inkscape:window-height="1016"
     id="namedview3838"
     showgrid="true"
     inkscape:zoom="10.717087"
     inkscape:cx="22.207527"
     inkscape:cy="34.617616"
     inkscape:window-x="0"
     inkscape:window-y="27"
     inkscape:window-maximized="1"
     inkscape:current-layer="Layer_1"
     inkscape:showpageshadow="2"
     inkscape:pagecheckerboard="0"
     inkscape:deskcolor="#d1d1d1"><inkscape:grid
       type="xygrid"
       id="grid3844"
       empspacing="4"
       originx="0"
       originy="0"
       spacingy="1"
       spacingx="1"
       units="px"
       visible="true" /></sodipodi:namedview><path
     style="fill:none;stroke:#4d4d4d;stroke-width:4;stroke-linecap:round;stroke-linejoin:round;stroke-dasharray:none;stroke-opacity:1;paint-order:markers fill stroke"
     id="path2"
     sodipodi:type="arc"
     sodipodi:cx="32"
     sodipodi:cy="32"
     sodipodi:rx="26"
     sodipodi:ry="26"
     sodipodi:start="3.138617"
     sodipodi:end="3.1256151"
     sodipodi:open="true"
     sodipodi:arc-type="arc"
     d="M 6.0001151,32.077367 A 26,26 0 0 1 31.838122,6.0005039 26,26 0 0 1 57.998833,31.753612 26,26 0 0 1 32.330895,57.997894 26,26 0 0 1 6.0033186,32.415399" /><path
     d="m 29.982422,41.882812 h 3.964844 v 4.960938 h -3.964844 z m 3.847656,-2.871093 h -3.730469 v -3.007813 q 0,-1.972656 0.546875,-3.242187 0.546875,-1.269532 2.304688,-2.949219 l 1.757812,-1.738281 q 1.113282,-1.035157 1.601563,-1.953125 0.507812,-0.917969 0.507812,-1.875 0,-1.738282 -1.289062,-2.8125 -1.269531,-1.074219 -3.378906,-1.074219 -1.542969,0 -3.300782,0.683594 -1.738281,0.683593 -3.632812,1.992187 v -3.671875 q 1.835937,-1.113281 3.710937,-1.660156 1.894532,-0.546875 3.90625,-0.546875 3.59375,0 5.761719,1.894531 2.1875,1.894531 2.1875,5 0,1.484375 -0.703125,2.832031 -0.703125,1.328125 -2.460937,3.007813 l -1.71875,1.679687 q -0.917969,0.917969 -1.308594,1.445313 -0.371094,0.507812 -0.527344,0.996094 -0.117187,0.410156 -0.175781,0.996093 -0.05859,0.585938 -0.05859,1.601563 z"
     id="text4"
     aria-label="?"
     style="fill:#0000c8;fill-opacity:1" /></svg>
