<?xml version="1.0" encoding="UTF-8" standalone="no"?>
<!--
tags: [video, photo, aperture, camera, content, entertainment, multimedia, broadcast, audio]
category: Media
version: "1.0"
unicode: "ea54"
-->

<svg
   width="24"
   height="24"
   viewBox="0 0 24 24"
   fill="none"
   stroke="currentColor"
   stroke-width="2"
   stroke-linecap="round"
   stroke-linejoin="round"
   version="1.1"
   id="svg2"
   sodipodi:docname="camera-orthographic.svg"
   inkscape:version="1.4.4 (unknown)"
   xmlns:inkscape="http://www.inkscape.org/namespaces/inkscape"
   xmlns:sodipodi="http://sodipodi.sourceforge.net/DTD/sodipodi-0.dtd"
   xmlns="http://www.w3.org/2000/svg"
   xmlns:svg="http://www.w3.org/2000/svg">
  <defs
     id="defs2" />
  <sodipodi:namedview
     id="namedview2"
     pagecolor="#ffffff"
     bordercolor="#000000"
     borderopacity="0.25"
     inkscape:showpageshadow="2"
     inkscape:pageopacity="0.0"
     inkscape:pagecheckerboard="0"
     inkscape:deskcolor="#d1d1d1"
     showgrid="true"
     inkscape:zoom="33.125"
     inkscape:cx="12"
     inkscape:cy="11.984906"
     inkscape:window-width="1920"
     inkscape:window-height="1011"
     inkscape:window-x="0"
     inkscape:window-y="0"
     inkscape:window-maximized="1"
     inkscape:current-layer="svg2">
    <inkscape:grid
       id="grid2"
       units="px"
       originx="0"
       originy="0"
       spacingx="1"
       spacingy="1"
       empcolor="#0099e5"
       empopacity="0.30196078"
       color="#0099e5"
       opacity="0.14901961"
       empspacing="4"
       enabled="true"
       visible="true" />
  </sodipodi:namedview>
  <path
     d="M5 7h1a2 2 0 0 0 2 -2a1 1 0 0 1 1 -1h6a1 1 0 0 1 1 1a2 2 0 0 0 2 2h1a2 2 0 0 1 2 2v9a2 2 0 0 1 -2 2h-14a2 2 0 0 1 -2 -2v-9a2 2 0 0 1 2 -2"
     id="path1" />
  <path
     d="M9 13a3 3 0 1 0 6 0a3 3 0 0 0 -6 0"
     id="path2" />
  <path
     style="fill:#000000;fill-opacity:0.40000001;stroke-width:2;stroke-linecap:round;stroke-linejoin:round;stroke-miterlimit:3.8;stroke:none"
     d="m 8,20 v -7 l 4,4 4,-4 v 7 z"
     id="path3" />
</svg>
