<?xml version="1.0" encoding="UTF-8" standalone="no"?>
<svg
   version="1.0"
   id="Layer_1"
   x="0px"
   y="0px"
   width="64px"
   height="64px"
   viewBox="0 0 64 64"
   enable-background="new 0 0 64 64"
   xml:space="preserve"
   inkscape:version="1.3.2 (091e20ef0f, 2023-11-25)"
   sodipodi:docname="builder.svg"
   inkscape:export-filename="/Users/realor/NetBeansProjects/threecad/web/css/images/inspector/boolean.png"
   inkscape:export-xdpi="22.5"
   inkscape:export-ydpi="22.5"
   xmlns:inkscape="http://www.inkscape.org/namespaces/inkscape"
   xmlns:sodipodi="http://sodipodi.sourceforge.net/DTD/sodipodi-0.dtd"
   xmlns="http://www.w3.org/2000/svg"
   xmlns:svg="http://www.w3.org/2000/svg"
   xmlns:rdf="http://www.w3.org/1999/02/22-rdf-syntax-ns#"
   xmlns:cc="http://creativecommons.org/ns#"
   xmlns:dc="http://purl.org/dc/elements/1.1/"><metadata
   id="metadata3009"><rdf:RDF><cc:Work
       rdf:about=""><dc:format>image/svg+xml</dc:format><dc:type
         rdf:resource="http://purl.org/dc/dcmitype/StillImage" /><dc:title /></cc:Work></rdf:RDF></metadata><defs
   id="defs3007" /><sodipodi:namedview
   pagecolor="#ffffff"
   bordercolor="#666666"
   borderopacity="1"
   objecttolerance="10000"
   gridtolerance="10000"
   guidetolerance="10000"
   inkscape:pageopacity="0"
   inkscape:pageshadow="2"
   inkscape:window-width="1920"
   inkscape:window-height="1016"
   id="namedview3005"
   showgrid="true"
   inkscape:zoom="11.291611"
   inkscape:cx="27.099765"
   inkscape:cy="30.553656"
   inkscape:window-x="0"
   inkscape:window-y="27"
   inkscape:window-maximized="1"
   inkscape:current-layer="_1"
   inkscape:snap-global="false"
   inkscape:document-rotation="0"
   inkscape:snap-bbox="false"
   inkscape:showpageshadow="2"
   inkscape:pagecheckerboard="0"
   inkscape:deskcolor="#d1d1d1"><inkscape:grid
     type="xygrid"
     id="grid3011"
     originx="0"
     originy="0"
     spacingy="1"
     spacingx="1"
     units="px"
     visible="true"
     empspacing="4" /></sodipodi:namedview>
<g
   data-name="1"
   id="_1"
   transform="matrix(0.13616958,0,0,0.13616958,-3.3572021,-1.4217437)"><path
     d="m 290.99296,451.26872 h -61.61215 a 15.308635,15.346934 0 0 1 -15.22698,-13.73039 l -4.56198,-43.0635 a 155.91335,156.30341 0 0 1 -18.62551,-7.73486 l -33.56673,27.21524 A 15.308635,15.346934 0 0 1 136.9881,412.87068 L 93.419726,369.19331 a 15.308635,15.346934 0 0 1 -1.081812,-20.46258 l 27.157516,-33.69164 a 155.28059,155.66907 0 0 1 -7.72575,-18.6721 L 68.742205,291.76291 A 15.308635,15.346934 0 0 1 55.04608,276.50806 v -61.77652 a 15.308635,15.346934 0 0 1 13.696125,-15.25486 l 42.956035,-4.57339 A 155.28059,155.66907 0 0 1 119.424,176.2312 L 92.266474,142.53956 a 15.308635,15.346934 0 0 1 1.08181,-20.46259 L 136.91665,78.399603 a 15.308635,15.346934 0 0 1 20.41153,-1.084518 l 33.60755,27.215235 a 155.91335,156.30341 0 0 1 18.6255,-7.734859 l 4.56198,-43.063498 a 15.308635,15.346934 0 0 1 15.2576,-13.761084 h 61.61215 a 15.308635,15.346934 0 0 1 15.227,13.730391 l 4.55176,43.063497 a 156.05622,156.44665 0 0 1 18.63571,7.734863 l 33.59736,-27.215237 a 15.308635,15.346934 0 0 1 20.4115,1.084515 l 43.56838,43.677372 a 15.308635,15.346934 0 0 1 1.08181,20.46259 l -27.15751,33.69163 a 156.96454,157.35723 0 0 1 7.72576,18.67211 l 42.95602,4.57338 a 15.308635,15.346934 0 0 1 13.68593,15.25485 v 61.77652 a 15.308635,15.346934 0 0 1 -13.64511,15.28555 l -42.95602,4.57339 a 156.96454,157.35723 0 0 1 -7.72578,18.6721 l 27.15754,33.69164 a 15.308635,15.346934 0 0 1 -1.08182,20.46258 l -43.56838,43.70806 a 15.308635,15.346934 0 0 1 -20.41151,1.08453 l -33.59734,-27.21524 a 156.05622,156.44665 0 0 1 -18.63571,7.73486 l -4.55178,43.0635 a 15.308635,15.346934 0 0 1 -15.26781,13.73039 z m -47.86499,-30.69386 h 34.07702 l 4.17415,-39.45186 a 15.308635,15.346934 0 0 1 11.28758,-13.2086 125.53081,125.84486 0 0 0 30.78054,-12.81981 15.308635,15.346934 0 0 1 17.34979,1.3403 l 30.78057,24.93366 24.09579,-24.15609 -24.91226,-30.76548 a 15.308635,15.346934 0 0 1 -1.33695,-17.39319 125.15319,125.4663 0 0 0 12.74698,-30.8371 15.308635,15.346934 0 0 1 13.18585,-11.31582 l 39.34319,-4.19483 v -34.16227 l -39.34319,-4.19483 a 15.308635,15.346934 0 0 1 -13.18585,-11.3158 125.15319,125.4663 0 0 0 -12.74698,-30.84733 15.308635,15.346934 0 0 1 1.33695,-17.3932 l 24.87144,-30.85757 -24.09579,-24.15608 -30.78056,24.93366 a 15.308635,15.346934 0 0 1 -17.3498,1.34029 125.53081,125.84486 0 0 0 -30.76014,-12.77887 15.308635,15.346934 0 0 1 -11.28757,-13.2086 L 277.2254,70.664747 h -34.09743 l -4.17416,39.451853 a 15.308635,15.346934 0 0 1 -11.29778,13.20859 125.31648,125.63001 0 0 0 -30.72952,12.8198 15.308635,15.346934 0 0 1 -17.34979,-1.34029 l -30.74995,-24.97458 -24.08558,24.15608 24.88164,30.85757 a 15.308635,15.346934 0 0 1 1.32675,17.39319 125.94923,126.26433 0 0 0 -12.747,30.83711 15.308635,15.346934 0 0 1 -13.17562,11.3158 l -39.353404,4.19483 v 34.15204 l 39.353404,4.19483 a 15.308635,15.346934 0 0 1 13.17562,11.31581 125.94923,126.26433 0 0 0 12.73679,30.80641 15.308635,15.346934 0 0 1 -1.32675,17.39319 l -24.87143,30.80642 24.09579,24.15607 30.79077,-24.93365 a 15.308635,15.346934 0 0 1 17.34979,-1.34029 125.31648,125.63001 0 0 0 30.74994,12.77887 15.308635,15.346934 0 0 1 11.29777,13.2086 z m 206.88088,-144.0668 z"
     id="path1"
     style="stroke-width:1.02184" /><path
     style="fill:none;stroke-width:14.68756825;stroke-linecap:round;stroke-linejoin:round;paint-order:markers fill stroke;stroke:#000000;stroke-opacity:1;stroke-dasharray:none"
     id="path2"
     sodipodi:type="arc"
     sodipodi:cx="259.65567"
     sodipodi:cy="245.44208"
     sodipodi:rx="88.125412"
     sodipodi:ry="88.125412"
     sodipodi:start="3.138617"
     sodipodi:end="3.1256151"
     sodipodi:open="true"
     sodipodi:arc-type="arc"
     d="m 171.53065,245.70431 a 88.125412,88.125412 0 0 1 87.57634,-88.38594 88.125412,88.125412 0 0 1 88.67014,87.28859 88.125412,88.125412 0 0 1 -86.99991,88.95339 88.125412,88.125412 0 0 1 -89.23571,-86.7103" /></g></svg>
