<?xml version="1.0" encoding="UTF-8" standalone="no"?>
<svg
   version="1.0"
   id="Layer_1"
   x="0px"
   y="0px"
   width="64px"
   height="64px"
   viewBox="0 0 64 64"
   enable-background="new 0 0 64 64"
   xml:space="preserve"
   inkscape:version="1.3.2 (091e20ef0f, 2023-11-25)"
   sodipodi:docname="constant.svg"
   inkscape:export-filename="/Users/realor/NetBeansProjects/threecad/web/css/images/inspector/boolean.png"
   inkscape:export-xdpi="22.5"
   inkscape:export-ydpi="22.5"
   xmlns:inkscape="http://www.inkscape.org/namespaces/inkscape"
   xmlns:sodipodi="http://sodipodi.sourceforge.net/DTD/sodipodi-0.dtd"
   xmlns="http://www.w3.org/2000/svg"
   xmlns:svg="http://www.w3.org/2000/svg"
   xmlns:rdf="http://www.w3.org/1999/02/22-rdf-syntax-ns#"
   xmlns:cc="http://creativecommons.org/ns#"
   xmlns:dc="http://purl.org/dc/elements/1.1/"><metadata
   id="metadata3009"><rdf:RDF><cc:Work
       rdf:about=""><dc:format>image/svg+xml</dc:format><dc:type
         rdf:resource="http://purl.org/dc/dcmitype/StillImage" /><dc:title /></cc:Work></rdf:RDF></metadata><defs
   id="defs3007" /><sodipodi:namedview
   pagecolor="#ffffff"
   bordercolor="#666666"
   borderopacity="1"
   objecttolerance="10000"
   gridtolerance="10000"
   guidetolerance="10000"
   inkscape:pageopacity="0"
   inkscape:pageshadow="2"
   inkscape:window-width="1920"
   inkscape:window-height="1016"
   id="namedview3005"
   showgrid="true"
   inkscape:zoom="11.291611"
   inkscape:cx="34.18467"
   inkscape:cy="35.51309"
   inkscape:window-x="0"
   inkscape:window-y="27"
   inkscape:window-maximized="1"
   inkscape:current-layer="text886"
   inkscape:snap-global="false"
   inkscape:document-rotation="0"
   inkscape:snap-bbox="false"
   inkscape:showpageshadow="2"
   inkscape:pagecheckerboard="0"
   inkscape:deskcolor="#d1d1d1"><inkscape:grid
     type="xygrid"
     id="grid3011"
     originx="0"
     originy="0"
     spacingy="1"
     spacingx="1"
     units="px"
     visible="true" /></sodipodi:namedview>
<path
   style="color:#000000;font-style:normal;font-variant:normal;font-weight:normal;font-stretch:normal;font-size:medium;line-height:normal;font-family:sans-serif;font-variant-ligatures:normal;font-variant-position:normal;font-variant-caps:normal;font-variant-numeric:normal;font-variant-alternates:normal;font-variant-east-asian:normal;font-feature-settings:normal;font-variation-settings:normal;text-indent:0;text-align:start;text-decoration:none;text-decoration-line:none;text-decoration-style:solid;text-decoration-color:#000000;letter-spacing:normal;word-spacing:normal;text-transform:none;writing-mode:lr-tb;direction:ltr;text-orientation:mixed;dominant-baseline:auto;baseline-shift:baseline;text-anchor:start;white-space:normal;shape-padding:0;shape-margin:0;inline-size:0;clip-rule:nonzero;display:inline;overflow:visible;visibility:visible;isolation:auto;mix-blend-mode:normal;color-interpolation:sRGB;color-interpolation-filters:linearRGB;solid-color:#000000;solid-opacity:1;vector-effect:none;fill:#000000;fill-opacity:1;fill-rule:nonzero;stroke:none;stroke-width:1.96618;stroke-linecap:square;stroke-linejoin:miter;stroke-miterlimit:4;stroke-dasharray:none;stroke-dashoffset:1.51181;stroke-opacity:1;color-rendering:auto;image-rendering:auto;shape-rendering:auto;text-rendering:auto;enable-background:accumulate;stop-color:#000000;stop-opacity:1;opacity:1"
   d="M 32.3125 5.1152344 C 22.099825 5.0197938 12.377904 10.806196 7.7402344 20.511719 L 7.6503906 20.472656 L 7.2734375 21.345703 L 7.2597656 21.375 C 7.2586762 21.377513 7.2589011 21.380299 7.2578125 21.382812 L 6.8808594 22.246094 L 6.9707031 22.285156 C 1.6978241 35.73838 7.9255847 51.066488 21.294922 56.859375 C 34.963026 62.781716 50.876129 56.501992 56.806641 42.84375 C 62.737152 29.185508 56.45555 13.280175 42.791016 7.3496094 C 39.374882 5.866968 35.818974 5.1480035 32.3125 5.1152344 z M 32.285156 7.0742188 C 35.536664 7.1065977 38.835214 7.7773525 42.007812 9.1542969 C 54.698207 14.662075 60.509148 29.377223 55.001953 42.060547 C 49.494758 54.743871 34.769883 60.556781 22.076172 55.056641 C 9.382461 49.5565 3.5649026 34.842885 9.0644531 22.15625 L 9.0761719 22.128906 C 13.212299 12.6189 22.530634 6.9770818 32.285156 7.0742188 z "
   id="path841" /><g
   aria-label="S"
   id="text886"
   style="font-size:40px;line-height:1.25;font-family:sans-serif;-inkscape-font-specification:sans-serif;letter-spacing:0px;word-spacing:0px"><path
     style="-inkscape-font-specification:Carlito"
     d="m 39.006717,40.672281 q 0.291667,0 0.541667,0.250001 l 1.500001,1.625001 q -1.479167,1.958335 -3.645836,3.041669 -2.166668,1.083334 -5.187503,1.083334 -2.666669,0 -4.833337,-1.020834 -2.145835,-1.020834 -3.687503,-2.854169 -1.520835,-1.854168 -2.354169,-4.41667 -0.8125,-2.583335 -0.8125,-5.687504 0,-3.104169 0.875,-5.666671 0.875001,-2.583335 2.458336,-4.437503 1.583334,-1.854168 3.791669,-2.875002 2.208335,-1.020835 4.875004,-1.020835 2.645835,0 4.645837,0.937501 2.020834,0.937501 3.520835,2.541669 l -1.25,1.750001 q -0.125001,0.1875 -0.312501,0.3125 -0.1875,0.125 -0.479167,0.125 -0.354167,0 -0.791667,-0.375 -0.416667,-0.375 -1.104167,-0.812501 -0.687501,-0.458333 -1.708335,-0.833334 -1.020834,-0.375 -2.541669,-0.375 -1.791668,0 -3.291669,0.729167 -1.479167,0.729168 -2.562502,2.125002 -1.0625,1.375001 -1.666668,3.375002 -0.583333,1.979169 -0.583333,4.500004 0,2.541668 0.625,4.54167 0.625001,2.000001 1.708335,3.375002 1.083334,1.375001 2.541668,2.104169 1.479168,0.729167 3.166669,0.729167 1.041668,0 1.854168,-0.145834 0.833334,-0.145833 1.520835,-0.4375 0.708334,-0.3125 1.312501,-0.770834 0.625,-0.479167 1.229167,-1.125001 0.333334,-0.291667 0.645834,-0.291667 z"
     id="text1"
     aria-label="C" /></g></svg>
