<?xml version="1.0" encoding="UTF-8" standalone="no"?>
<svg
   version="1.0"
   id="Layer_1"
   x="0px"
   y="0px"
   width="64px"
   height="64px"
   viewBox="0 0 64 64"
   enable-background="new 0 0 64 64"
   xml:space="preserve"
   inkscape:version="1.3.2 (091e20ef0f, 2023-11-25)"
   sodipodi:docname="enumeration.svg"
   inkscape:export-filename="/Users/realor/NetBeansProjects/threecad/web/css/images/inspector/boolean.png"
   inkscape:export-xdpi="22.5"
   inkscape:export-ydpi="22.5"
   xmlns:inkscape="http://www.inkscape.org/namespaces/inkscape"
   xmlns:sodipodi="http://sodipodi.sourceforge.net/DTD/sodipodi-0.dtd"
   xmlns="http://www.w3.org/2000/svg"
   xmlns:svg="http://www.w3.org/2000/svg"
   xmlns:rdf="http://www.w3.org/1999/02/22-rdf-syntax-ns#"
   xmlns:cc="http://creativecommons.org/ns#"
   xmlns:dc="http://purl.org/dc/elements/1.1/"><metadata
   id="metadata3009"><rdf:RDF><cc:Work
       rdf:about=""><dc:format>image/svg+xml</dc:format><dc:type
         rdf:resource="http://purl.org/dc/dcmitype/StillImage" /><dc:title /></cc:Work></rdf:RDF></metadata><defs
   id="defs3007" /><sodipodi:namedview
   pagecolor="#ffffff"
   bordercolor="#666666"
   borderopacity="1"
   objecttolerance="10000"
   gridtolerance="10000"
   guidetolerance="10000"
   inkscape:pageopacity="0"
   inkscape:pageshadow="2"
   inkscape:window-width="1920"
   inkscape:window-height="1016"
   id="namedview3005"
   showgrid="true"
   inkscape:zoom="11.291611"
   inkscape:cx="29.49092"
   inkscape:cy="31.527831"
   inkscape:window-x="0"
   inkscape:window-y="27"
   inkscape:window-maximized="1"
   inkscape:current-layer="Layer_1"
   inkscape:snap-global="false"
   inkscape:document-rotation="0"
   inkscape:snap-bbox="false"
   inkscape:showpageshadow="2"
   inkscape:pagecheckerboard="0"
   inkscape:deskcolor="#d1d1d1"><inkscape:grid
     type="xygrid"
     id="grid3011"
     originx="0"
     originy="0"
     spacingy="1"
     spacingx="1"
     units="px"
     visible="true" /></sodipodi:namedview>
<path
   style="fill:none;stroke:#000000;stroke-width:4;stroke-linecap:round;stroke-linejoin:round;stroke-dasharray:none;stroke-opacity:1"
   d="M 54,54 V 10 c -15.333333,0 -28.666667,0 -44,0 v 44 c 15.333333,0 28.666667,0 44,0 z"
   id="path356-6"
   sodipodi:nodetypes="ccccc" /><path
   d="M 45.515618,30.776041 V 33.11979 H 23.484381 q 0.3125,4.947913 2.968748,7.552078 2.68229,2.578124 7.447913,2.578124 2.760415,0 5.338538,-0.677083 2.604165,-0.677083 5.156247,-2.031249 v 4.531247 q -2.578124,1.09375 -5.286455,1.666666 -2.708332,0.572916 -5.494789,0.572916 -6.979162,0 -11.067701,-4.062497 -4.062498,-4.062498 -4.062498,-10.989577 0,-7.161454 3.854164,-11.35416 3.880206,-4.218747 10.442703,-4.218747 5.885413,0 9.296869,3.802081 3.437498,3.776039 3.437498,10.286452 z m -4.791664,-1.406249 q -0.05208,-3.93229 -2.21354,-6.276038 -2.135416,-2.343749 -5.67708,-2.343749 -4.010414,0 -6.432288,2.265624 -2.395832,2.265624 -2.760415,6.380204 z"
   id="text1"
   aria-label="e" /></svg>
