<?xml version="1.0" encoding="UTF-8" standalone="no"?>
<svg
   version="1.0"
   id="Layer_1"
   x="0px"
   y="0px"
   width="64px"
   height="64px"
   viewBox="0 0 64 64"
   enable-background="new 0 0 64 64"
   xml:space="preserve"
   inkscape:version="1.1.1 (3bf5ae0d25, 2021-09-20)"
   sodipodi:docname="formula.svg"
   inkscape:export-filename="/Users/realor/NetBeansProjects/threecad/web/css/images/inspector/boolean.png"
   inkscape:export-xdpi="22.5"
   inkscape:export-ydpi="22.5"
   xmlns:inkscape="http://www.inkscape.org/namespaces/inkscape"
   xmlns:sodipodi="http://sodipodi.sourceforge.net/DTD/sodipodi-0.dtd"
   xmlns="http://www.w3.org/2000/svg"
   xmlns:svg="http://www.w3.org/2000/svg"
   xmlns:rdf="http://www.w3.org/1999/02/22-rdf-syntax-ns#"
   xmlns:cc="http://creativecommons.org/ns#"
   xmlns:dc="http://purl.org/dc/elements/1.1/"><metadata
   id="metadata3009"><rdf:RDF><cc:Work
       rdf:about=""><dc:format>image/svg+xml</dc:format><dc:type
         rdf:resource="http://purl.org/dc/dcmitype/StillImage" /><dc:title /></cc:Work></rdf:RDF></metadata><defs
   id="defs3007" /><sodipodi:namedview
   pagecolor="#ffffff"
   bordercolor="#666666"
   borderopacity="1"
   objecttolerance="10000"
   gridtolerance="10000"
   guidetolerance="10000"
   inkscape:pageopacity="0"
   inkscape:pageshadow="2"
   inkscape:window-width="1920"
   inkscape:window-height="948"
   id="namedview3005"
   showgrid="true"
   inkscape:zoom="11.291611"
   inkscape:cx="34.361793"
   inkscape:cy="35.026003"
   inkscape:window-x="0"
   inkscape:window-y="27"
   inkscape:window-maximized="1"
   inkscape:current-layer="text886"
   inkscape:snap-global="false"
   inkscape:document-rotation="0"
   inkscape:snap-bbox="false"
   inkscape:pagecheckerboard="0"><inkscape:grid
     type="xygrid"
     id="grid3011" /></sodipodi:namedview>
<path
   style="color:#000000;font-style:normal;font-variant:normal;font-weight:normal;font-stretch:normal;font-size:medium;line-height:normal;font-family:sans-serif;font-variant-ligatures:normal;font-variant-position:normal;font-variant-caps:normal;font-variant-numeric:normal;font-variant-alternates:normal;font-variant-east-asian:normal;font-feature-settings:normal;font-variation-settings:normal;text-indent:0;text-align:start;text-decoration:none;text-decoration-line:none;text-decoration-style:solid;text-decoration-color:#000000;letter-spacing:normal;word-spacing:normal;text-transform:none;writing-mode:lr-tb;direction:ltr;text-orientation:mixed;dominant-baseline:auto;baseline-shift:baseline;text-anchor:start;white-space:normal;shape-padding:0;shape-margin:0;inline-size:0;clip-rule:nonzero;display:inline;overflow:visible;visibility:visible;isolation:auto;mix-blend-mode:normal;color-interpolation:sRGB;color-interpolation-filters:linearRGB;solid-color:#000000;solid-opacity:1;vector-effect:none;fill:#000000;fill-opacity:1;fill-rule:nonzero;stroke:none;stroke-width:1.96618;stroke-linecap:square;stroke-linejoin:miter;stroke-miterlimit:4;stroke-dasharray:none;stroke-dashoffset:1.51181;stroke-opacity:1;color-rendering:auto;image-rendering:auto;shape-rendering:auto;text-rendering:auto;enable-background:accumulate;stop-color:#000000;stop-opacity:1;opacity:1"
   d="M 32.3125 5.1152344 C 22.099825 5.0197938 12.377904 10.806196 7.7402344 20.511719 L 7.6503906 20.472656 L 7.2734375 21.345703 L 7.2597656 21.375 C 7.2586762 21.377513 7.2589011 21.380299 7.2578125 21.382812 L 6.8808594 22.246094 L 6.9707031 22.285156 C 1.6978241 35.73838 7.9255847 51.066488 21.294922 56.859375 C 34.963026 62.781716 50.876129 56.501992 56.806641 42.84375 C 62.737152 29.185508 56.45555 13.280175 42.791016 7.3496094 C 39.374882 5.866968 35.818974 5.1480035 32.3125 5.1152344 z M 32.285156 7.0742188 C 35.536664 7.1065977 38.835214 7.7773525 42.007812 9.1542969 C 54.698207 14.662075 60.509148 29.377223 55.001953 42.060547 C 49.494758 54.743871 34.769883 60.556781 22.076172 55.056641 C 9.382461 49.5565 3.5649026 34.842885 9.0644531 22.15625 L 9.0761719 22.128906 C 13.212299 12.6189 22.530634 6.9770818 32.285156 7.0742188 z "
   id="path841" /><g
   aria-label="S"
   id="text886"
   style="font-size:40px;line-height:1.25;font-family:sans-serif;-inkscape-font-specification:sans-serif;letter-spacing:0px;word-spacing:0px"><path
     id="text6544"
     transform="matrix(1,0,0,0.84561334,0.18431176,5.1235776)"
     d="m 42.234375,12.728516 c -2.605655,0 -4.495187,0.998429 -7.261719,3.683593 a 0.72145261,0.72145261 0 0 0 -0.0039,0.002 c -1.14374,1.123316 -1.927066,2.069193 -2.570312,3.546876 -0.588022,1.350817 -1.102822,3.368925 -1.779297,6.220703 -0.07293,-0.0015 -0.202388,-0.01367 -0.263672,-0.01367 a 0.72145261,0.72145261 0 0 0 -0.0293,0 l -1.94336,0.08008 c -0.08626,5.9e-5 -0.222513,0.0012 -0.498046,-0.0332 a 0.72145261,0.72145261 0 0 0 -0.490235,0.115234 c -0.238859,0.159238 -0.570616,0.35855 -0.482422,0.314453 a 0.72145261,0.72145261 0 0 0 -0.02344,0.01172 c -0.46768,0.255098 -0.512452,0.313694 -0.826172,0.453125 a 0.72145261,0.72145261 0 0 0 -0.107422,0.06055 c 0.0056,-0.0037 -0.37326,0.198903 -0.75,0.408203 a 0.72145261,0.72145261 0 0 0 0.34961,1.351563 h 0.99414 l 2.796875,0.04102 a 0.72145261,0.72145261 0 0 0 0.0098,0 c 0.08995,0 0.40545,-0.01332 0.5625,-0.01563 -0.479363,1.863412 -0.76791,3.045537 -1.427735,6.101563 -1.197623,5.509067 -2.04649,8.693 -2.919922,10.357421 -0.436715,0.832211 -0.847135,1.265123 -1.300781,1.519532 -0.453646,0.254408 -1.007186,0.355468 -1.794922,0.355468 -0.566999,0 -0.984294,-0.03559 -2.009765,-0.193359 a 0.72145261,0.72145261 0 0 0 -0.703125,0.302735 l -0.800781,1.160156 c -0.301858,0.413985 -0.663928,0.858196 -1.00586,1.371094 a 0.72145261,0.72145261 0 0 0 0.501953,1.115234 c 0.885856,0.120798 1.313077,0.164062 2.058594,0.164062 1.389581,0 2.515891,-0.182367 3.347656,-0.648437 1.392336,-0.768187 3.352593,-2.699542 4.501953,-4.189453 a 0.72145261,0.72145261 0 0 0 0.0098,-0.01367 c 1.356498,-1.837837 2.779176,-5.255557 3.716797,-9.001953 l 0.002,-0.0098 c 0.758597,-2.854796 1.329319,-5.025017 1.71875,-6.513672 0.300479,-1.148624 0.401667,-1.540425 0.488281,-1.86914 0.03279,3.87e-4 0.10592,0.0078 0.134766,0.0078 a 0.72145261,0.72145261 0 0 0 0.02734,0 l 2.064453,-0.08008 c 0.124024,-4.1e-5 0.311589,6.9e-4 0.675781,0.03711 a 0.72145261,0.72145261 0 0 0 0.509766,-0.144531 l 1.679687,-1.279297 a 0.72145261,0.72145261 0 0 0 -0.412109,-1.294922 c -1.165867,-0.0402 -1.625429,-0.04102 -2.585938,-0.04102 -0.515729,0 -0.960102,0.01499 -1.375,0.02344 1.133666,-4.400589 1.910574,-7.138652 2.558594,-8.472656 0.350491,-0.721515 0.651195,-1.059059 0.925781,-1.232422 C 38.778493,16.312965 39.0949,16.25 39.634766,16.25 c 0.666356,0 1.163736,0.07143 2.558593,0.310547 a 0.72145261,0.72145261 0 0 0 0.669922,-0.244141 L 44.703125,14.15625 A 0.72145261,0.72145261 0 0 0 44.330078,12.990234 C 43.508261,12.78478 43.058562,12.728516 42.234375,12.728516 Z" /></g></svg>
