<?xml version="1.0" encoding="UTF-8" standalone="no"?>
<svg
   version="1.0"
   id="Layer_1"
   x="0px"
   y="0px"
   width="64px"
   height="64px"
   viewBox="0 0 64 64"
   enable-background="new 0 0 64 64"
   xml:space="preserve"
   inkscape:version="1.3.2 (091e20ef0f, 2023-11-25)"
   sodipodi:docname="geometry.svg"
   inkscape:export-filename="/Users/realor/NetBeansProjects/threecad/web/css/images/inspector/boolean.png"
   inkscape:export-xdpi="22.5"
   inkscape:export-ydpi="22.5"
   xmlns:inkscape="http://www.inkscape.org/namespaces/inkscape"
   xmlns:sodipodi="http://sodipodi.sourceforge.net/DTD/sodipodi-0.dtd"
   xmlns="http://www.w3.org/2000/svg"
   xmlns:svg="http://www.w3.org/2000/svg"
   xmlns:rdf="http://www.w3.org/1999/02/22-rdf-syntax-ns#"
   xmlns:cc="http://creativecommons.org/ns#"
   xmlns:dc="http://purl.org/dc/elements/1.1/"><metadata
   id="metadata3009"><rdf:RDF><cc:Work
       rdf:about=""><dc:format>image/svg+xml</dc:format><dc:type
         rdf:resource="http://purl.org/dc/dcmitype/StillImage" /></cc:Work></rdf:RDF></metadata><defs
   id="defs3007" /><sodipodi:namedview
   pagecolor="#ffffff"
   bordercolor="#666666"
   borderopacity="1"
   objecttolerance="10000"
   gridtolerance="10000"
   guidetolerance="10000"
   inkscape:pageopacity="0"
   inkscape:pageshadow="2"
   inkscape:window-width="1920"
   inkscape:window-height="1016"
   id="namedview3005"
   showgrid="true"
   inkscape:zoom="11.291611"
   inkscape:cx="35.070284"
   inkscape:cy="37.195755"
   inkscape:window-x="0"
   inkscape:window-y="27"
   inkscape:window-maximized="1"
   inkscape:current-layer="Layer_1"
   inkscape:snap-global="false"
   inkscape:document-rotation="0"
   inkscape:snap-bbox="false"
   inkscape:showpageshadow="2"
   inkscape:pagecheckerboard="0"
   inkscape:deskcolor="#d1d1d1"><inkscape:grid
     type="xygrid"
     id="grid3011"
     originx="0"
     originy="0"
     spacingy="1"
     spacingx="1"
     units="px"
     visible="true"
     empspacing="4" /></sodipodi:namedview>
<path
   d="M 54.423928,44.078735 V 21.1428 A 1.8841891,1.8841891 0 0 0 53.470204,19.514488 L 33,8 A 1.8144045,1.8144045 0 0 0 31.185594,8 L 10.71539,19.514488 A 1.8841891,1.8841891 0 0 0 9.7616648,21.1428 v 22.935935 a 1.8841891,1.8841891 0 0 0 0.9537252,1.628312 l 20.470204,11.514489 a 1.8144045,1.8144045 0 0 0 1.814406,0 L 53.470204,45.707047 a 1.8841891,1.8841891 0 0 0 0.953724,-1.628312 z"
   fill="none"
   stroke="#000000"
   stroke-linecap="round"
   stroke-linejoin="round"
   stroke-width="3.72186"
   id="path1"
   style="stroke-width:3;stroke-dasharray:none" /><polyline
   fill="none"
   points="222.9 74.6 128.9 128 33.1 74.6"
   stroke="#000000"
   stroke-linecap="round"
   stroke-linejoin="round"
   stroke-width="16"
   id="polyline1"
   transform="matrix(0.23261595,0,0,0.23261595,2.3179534,2.8359241)"
   style="stroke-width:12.89679405;stroke-dasharray:none" /><line
   fill="none"
   stroke="#000000"
   stroke-linecap="round"
   stroke-linejoin="round"
   stroke-width="3.72186"
   x1="32.116779"
   x2="31.907427"
   y1="32.519039"
   y2="57.362423"
   id="line1"
   style="stroke-width:3;stroke-dasharray:none" /><path
   style="fill:#000000;stroke-width:2.19928;stroke-linecap:round;stroke-linejoin:round;stroke-dasharray:none;paint-order:markers fill stroke"
   id="path3-6"
   sodipodi:type="arc"
   sodipodi:cx="32.151264"
   sodipodi:cy="8"
   sodipodi:rx="3.8487358"
   sodipodi:ry="3.8487358"
   sodipodi:start="3.138617"
   sodipodi:end="3.1256151"
   sodipodi:open="true"
   sodipodi:arc-type="arc"
   d="M 28.302545,8.0114525 A 3.8487358,3.8487358 0 0 1 32.127302,4.1513388 3.8487358,3.8487358 0 0 1 35.999827,7.9635276 3.8487358,3.8487358 0 0 1 32.200246,11.848424 3.8487358,3.8487358 0 0 1 28.30302,8.0614908"
   inkscape:transform-center-x="15.045443"
   inkscape:transform-center-y="11.558502" /><path
   style="fill:#000000;stroke-width:2.19928;stroke-linecap:round;stroke-linejoin:round;stroke-dasharray:none;paint-order:markers fill stroke"
   id="path3-6-2"
   sodipodi:type="arc"
   sodipodi:cx="54.386879"
   sodipodi:cy="20.116249"
   sodipodi:rx="3.8487358"
   sodipodi:ry="3.8487358"
   sodipodi:start="3.138617"
   sodipodi:end="3.1256151"
   sodipodi:open="true"
   sodipodi:arc-type="arc"
   d="m 50.53816,20.127702 a 3.8487358,3.8487358 0 0 1 3.824756,-3.860114 3.8487358,3.8487358 0 0 1 3.872526,3.812189 3.8487358,3.8487358 0 0 1 -3.799581,3.884896 3.8487358,3.8487358 0 0 1 -3.897227,-3.786933"
   inkscape:transform-center-x="15.045443"
   inkscape:transform-center-y="11.558502" /><path
   style="fill:#000000;stroke-width:2.19928;stroke-linecap:round;stroke-linejoin:round;stroke-dasharray:none;paint-order:markers fill stroke"
   id="path3-6-2-9"
   sodipodi:type="arc"
   sodipodi:cx="54.387909"
   sodipodi:cy="45.373528"
   sodipodi:rx="3.8487358"
   sodipodi:ry="3.8487358"
   sodipodi:start="3.138617"
   sodipodi:end="3.1256151"
   sodipodi:open="true"
   sodipodi:arc-type="arc"
   d="m 50.53919,45.38498 a 3.8487358,3.8487358 0 0 1 3.824756,-3.860114 3.8487358,3.8487358 0 0 1 3.872526,3.812189 3.8487358,3.8487358 0 0 1 -3.799581,3.884897 3.8487358,3.8487358 0 0 1 -3.897227,-3.786934"
   inkscape:transform-center-x="15.045443"
   inkscape:transform-center-y="11.558502" /><path
   style="fill:#000000;stroke-width:2.19928;stroke-linecap:round;stroke-linejoin:round;stroke-dasharray:none;paint-order:markers fill stroke"
   id="path3-6-2-9-1"
   sodipodi:type="arc"
   sodipodi:cx="32.092873"
   sodipodi:cy="57.079433"
   sodipodi:rx="3.8487358"
   sodipodi:ry="3.8487358"
   sodipodi:start="3.138617"
   sodipodi:end="3.1256151"
   sodipodi:open="true"
   sodipodi:arc-type="arc"
   d="m 28.244154,57.090886 a 3.8487358,3.8487358 0 0 1 3.824756,-3.860114 3.8487358,3.8487358 0 0 1 3.872526,3.812189 3.8487358,3.8487358 0 0 1 -3.799582,3.884897 3.8487358,3.8487358 0 0 1 -3.897226,-3.786934"
   inkscape:transform-center-x="15.045443"
   inkscape:transform-center-y="11.558502" /><path
   style="fill:#000000;stroke-width:2.19928;stroke-linecap:round;stroke-linejoin:round;stroke-dasharray:none;paint-order:markers fill stroke"
   id="path3-6-2-9-1-2"
   sodipodi:type="arc"
   sodipodi:cx="9.6968565"
   sodipodi:cy="45.262489"
   sodipodi:rx="3.8487358"
   sodipodi:ry="3.8487358"
   sodipodi:start="3.138617"
   sodipodi:end="3.1256151"
   sodipodi:open="true"
   sodipodi:arc-type="arc"
   d="M 5.8481377,45.273942 A 3.8487358,3.8487358 0 0 1 9.6728939,41.413828 3.8487358,3.8487358 0 0 1 13.545419,45.226017 3.8487358,3.8487358 0 0 1 9.7458383,49.110913 3.8487358,3.8487358 0 0 1 5.8486119,45.32398"
   inkscape:transform-center-x="15.045443"
   inkscape:transform-center-y="11.558502" /><path
   style="fill:#000000;stroke-width:2.19928;stroke-linecap:round;stroke-linejoin:round;stroke-dasharray:none;paint-order:markers fill stroke"
   id="path3-6-2-9-1-2-7"
   sodipodi:type="arc"
   sodipodi:cx="9.8598232"
   sodipodi:cy="20.220613"
   sodipodi:rx="3.8487358"
   sodipodi:ry="3.8487358"
   sodipodi:start="3.138617"
   sodipodi:end="3.1256151"
   sodipodi:open="true"
   sodipodi:arc-type="arc"
   d="M 6.0111045,20.232066 A 3.8487358,3.8487358 0 0 1 9.8358607,16.371952 3.8487358,3.8487358 0 0 1 13.708386,20.184141 3.8487358,3.8487358 0 0 1 9.9088051,24.069038 3.8487358,3.8487358 0 0 1 6.0115787,20.282104"
   inkscape:transform-center-x="15.045443"
   inkscape:transform-center-y="11.558502" /><path
   style="fill:#000000;stroke-width:2.19928;stroke-linecap:round;stroke-linejoin:round;stroke-dasharray:none;paint-order:markers fill stroke"
   id="path3-6-2-9-1-2-7-0"
   sodipodi:type="arc"
   sodipodi:cx="32.095581"
   sodipodi:cy="31.902914"
   sodipodi:rx="3.8487358"
   sodipodi:ry="3.8487358"
   sodipodi:start="3.138617"
   sodipodi:end="3.1256151"
   sodipodi:open="true"
   sodipodi:arc-type="arc"
   d="m 28.246862,31.914367 a 3.8487358,3.8487358 0 0 1 3.824756,-3.860114 3.8487358,3.8487358 0 0 1 3.872526,3.812189 3.8487358,3.8487358 0 0 1 -3.799581,3.884896 3.8487358,3.8487358 0 0 1 -3.897227,-3.786933"
   inkscape:transform-center-x="15.045443"
   inkscape:transform-center-y="11.558502" /></svg>
