<?xml version="1.0" encoding="UTF-8" standalone="no"?>
<svg
   version="1.0"
   id="Layer_1"
   x="0px"
   y="0px"
   width="64px"
   height="64px"
   viewBox="0 0 64 64"
   enable-background="new 0 0 64 64"
   xml:space="preserve"
   inkscape:version="1.3.2 (091e20ef0f, 2023-11-25)"
   sodipodi:docname="links_tab.svg"
   inkscape:export-filename="/Users/realor/NetBeansProjects/threecad/web/css/images/inspector/boolean.png"
   inkscape:export-xdpi="22.5"
   inkscape:export-ydpi="22.5"
   xmlns:inkscape="http://www.inkscape.org/namespaces/inkscape"
   xmlns:sodipodi="http://sodipodi.sourceforge.net/DTD/sodipodi-0.dtd"
   xmlns="http://www.w3.org/2000/svg"
   xmlns:svg="http://www.w3.org/2000/svg"
   xmlns:rdf="http://www.w3.org/1999/02/22-rdf-syntax-ns#"
   xmlns:cc="http://creativecommons.org/ns#"
   xmlns:dc="http://purl.org/dc/elements/1.1/"><metadata
   id="metadata3009"><rdf:RDF><cc:Work
       rdf:about=""><dc:format>image/svg+xml</dc:format><dc:type
         rdf:resource="http://purl.org/dc/dcmitype/StillImage" /></cc:Work></rdf:RDF></metadata><defs
   id="defs3007" /><sodipodi:namedview
   pagecolor="#ffffff"
   bordercolor="#666666"
   borderopacity="1"
   objecttolerance="10000"
   gridtolerance="10000"
   guidetolerance="10000"
   inkscape:pageopacity="0"
   inkscape:pageshadow="2"
   inkscape:window-width="1920"
   inkscape:window-height="1011"
   id="namedview3005"
   showgrid="true"
   inkscape:zoom="11.291611"
   inkscape:cx="32.236321"
   inkscape:cy="35.645932"
   inkscape:window-x="0"
   inkscape:window-y="32"
   inkscape:window-maximized="1"
   inkscape:current-layer="Layer_1"
   inkscape:snap-global="false"
   inkscape:document-rotation="0"
   inkscape:snap-bbox="false"
   inkscape:showpageshadow="2"
   inkscape:pagecheckerboard="0"
   inkscape:deskcolor="#d1d1d1"><inkscape:grid
     type="xygrid"
     id="grid3011"
     originx="0"
     originy="0"
     spacingy="1"
     spacingx="1"
     units="px"
     visible="true"
     empspacing="4" /></sodipodi:namedview>
<path
   style="fill:none;stroke:#000000;stroke-width:4;stroke-linecap:round;stroke-linejoin:round;stroke-dasharray:none;stroke-opacity:1"
   d="M 54,54 V 10 c -15.333333,0 -28.666667,0 -44,0 v 44 c 15.333333,0 28.666667,0 44,0 z"
   id="path356-6"
   sodipodi:nodetypes="ccccc" /><path
   id="path3"
   style="color:#000000;fill:#000000;stroke-linecap:round;-inkscape-stroke:none"
   d="M 43.929688 19.001953 A 1 1 0 0 0 43.84375 19.021484 A 1 1 0 0 0 43.757812 19.029297 L 27.757812 23.029297 A 1 1 0 0 0 27.029297 24.242188 A 1 1 0 0 0 28.242188 24.970703 L 40.740234 21.845703 L 19.292969 43.292969 A 1 1 0 0 0 19.292969 44.707031 A 1 1 0 0 0 20.707031 44.707031 L 42.154297 23.259766 L 39.029297 35.757812 A 1 1 0 0 0 39.757812 36.970703 A 1 1 0 0 0 40.970703 36.242188 L 44.970703 20.242188 A 1 1 0 0 0 44.972656 20.236328 A 1 1 0 0 0 44.992188 20.123047 A 1 1 0 0 0 44.996094 20.087891 A 1 1 0 0 0 44.996094 20.078125 A 1 1 0 0 0 45 20.001953 A 1 1 0 0 0 45 19.998047 A 1 1 0 0 0 44.996094 19.9375 A 1 1 0 0 0 44.996094 19.921875 A 1 1 0 0 0 44.996094 19.912109 A 1 1 0 0 0 44.994141 19.898438 A 1 1 0 0 0 44.992188 19.876953 A 1 1 0 0 0 44.972656 19.763672 A 1 1 0 0 0 44.970703 19.757812 A 1 1 0 0 0 44.964844 19.742188 A 1 1 0 0 0 44.910156 19.585938 A 1 1 0 0 0 44.90625 19.578125 A 1 1 0 0 0 44.902344 19.572266 A 1 1 0 0 0 44.851562 19.480469 A 1 1 0 0 0 44.839844 19.460938 A 1 1 0 0 0 44.824219 19.433594 A 1 1 0 0 0 44.818359 19.425781 A 1 1 0 0 0 44.816406 19.421875 A 1 1 0 0 0 44.712891 19.298828 A 1 1 0 0 0 44.707031 19.292969 A 1 1 0 0 0 44.705078 19.291016 A 1 1 0 0 0 44.646484 19.236328 A 1 1 0 0 0 44.634766 19.228516 A 1 1 0 0 0 44.388672 19.080078 A 1 1 0 0 0 44.365234 19.070312 A 1 1 0 0 0 44.257812 19.035156 A 1 1 0 0 0 44.242188 19.029297 A 1 1 0 0 0 44.15625 19.021484 A 1 1 0 0 0 44 19.007812 A 1 1 0 0 0 43.929688 19.001953 z " /></svg>
