<?xml version="1.0" encoding="UTF-8" standalone="no"?>
<svg
   version="1.0"
   id="Layer_1"
   x="0px"
   y="0px"
   width="64px"
   height="64px"
   viewBox="0 0 64 64"
   enable-background="new 0 0 64 64"
   xml:space="preserve"
   inkscape:version="1.3.2 (091e20ef0f, 2023-11-25)"
   sodipodi:docname="material.svg"
   inkscape:export-filename="/Users/realor/NetBeansProjects/threecad/web/css/images/inspector/boolean.png"
   inkscape:export-xdpi="22.5"
   inkscape:export-ydpi="22.5"
   xmlns:inkscape="http://www.inkscape.org/namespaces/inkscape"
   xmlns:sodipodi="http://sodipodi.sourceforge.net/DTD/sodipodi-0.dtd"
   xmlns="http://www.w3.org/2000/svg"
   xmlns:svg="http://www.w3.org/2000/svg"
   xmlns:rdf="http://www.w3.org/1999/02/22-rdf-syntax-ns#"
   xmlns:cc="http://creativecommons.org/ns#"
   xmlns:dc="http://purl.org/dc/elements/1.1/"><metadata
   id="metadata3009"><rdf:RDF><cc:Work
       rdf:about=""><dc:format>image/svg+xml</dc:format><dc:type
         rdf:resource="http://purl.org/dc/dcmitype/StillImage" /></cc:Work></rdf:RDF></metadata><defs
   id="defs3007" /><sodipodi:namedview
   pagecolor="#ffffff"
   bordercolor="#666666"
   borderopacity="1"
   objecttolerance="10000"
   gridtolerance="10000"
   guidetolerance="10000"
   inkscape:pageopacity="0"
   inkscape:pageshadow="2"
   inkscape:window-width="1920"
   inkscape:window-height="1016"
   id="namedview3005"
   showgrid="true"
   inkscape:zoom="5.6458055"
   inkscape:cx="37.195755"
   inkscape:cy="45.52052"
   inkscape:window-x="0"
   inkscape:window-y="27"
   inkscape:window-maximized="1"
   inkscape:current-layer="g1"
   inkscape:snap-global="false"
   inkscape:document-rotation="0"
   inkscape:snap-bbox="false"
   inkscape:showpageshadow="2"
   inkscape:pagecheckerboard="0"
   inkscape:deskcolor="#d1d1d1"><inkscape:grid
     type="xygrid"
     id="grid3011"
     originx="0"
     originy="0"
     spacingy="1"
     spacingx="1"
     units="px"
     visible="true"
     empspacing="4" /></sodipodi:namedview>
<g
   id="g1"
   transform="matrix(0.99777494,0,0,0.99777494,-0.02260893,0.32655463)"><path
     d="M 58.801855,32.643197 C 58.694653,18.464995 46.383446,7.4110408 32.232045,7.5450493 19.753262,7.6766336 7.9790274,16.148928 5.9327672,28.459497 3.8865071,40.770067 8.9551097,57.697021 20.176043,58.137691 33.878626,58.484587 29.85602,47.3686 44.140047,46.178944 53.27211,45.418373 58.645444,40.779246 58.801855,32.643197 Z"
     fill="none"
     stroke="#000000"
     stroke-linecap="round"
     stroke-linejoin="round"
     stroke-width="4.2883"
     id="path1"
     style="stroke:#000000;stroke-width:3.00669;stroke-dasharray:none;stroke-opacity:1"
     sodipodi:nodetypes="ccscsc" /><path
     style="fill:#000000;fill-opacity:1;stroke:#000000;stroke-width:0.100223;stroke-linecap:round;stroke-linejoin:round;stroke-dasharray:none;paint-order:markers fill stroke"
     id="path2"
     sodipodi:type="arc"
     sodipodi:cx="20.094456"
     sodipodi:cy="23.726234"
     sodipodi:rx="3.9316092"
     sodipodi:ry="4.0089202"
     sodipodi:start="3.138617"
     sodipodi:end="3.1256151"
     sodipodi:open="true"
     sodipodi:arc-type="arc"
     d="m 16.162864,23.738164 a 3.9316092,4.0089202 0 0 1 3.907113,-4.020772 3.9316092,4.0089202 0 0 1 3.955911,3.970852 3.9316092,4.0089202 0 0 1 -3.881396,4.046586 3.9316092,4.0089202 0 0 1 -3.981144,-3.944546" /><path
     style="fill:#000000;fill-opacity:1;stroke:#000000;stroke-width:0.100223;stroke-linecap:round;stroke-linejoin:round;stroke-dasharray:none;paint-order:markers fill stroke"
     id="path2-56"
     sodipodi:type="arc"
     sodipodi:cx="36.10294"
     sodipodi:cy="19.717316"
     sodipodi:rx="3.9316092"
     sodipodi:ry="4.0089202"
     sodipodi:start="3.138617"
     sodipodi:end="3.1256151"
     sodipodi:open="true"
     sodipodi:arc-type="arc"
     d="m 32.171348,19.729245 a 3.9316092,4.0089202 0 0 1 3.907113,-4.020772 3.9316092,4.0089202 0 0 1 3.955911,3.970852 3.9316092,4.0089202 0 0 1 -3.881396,4.046586 3.9316092,4.0089202 0 0 1 -3.981144,-3.944545" /><path
     style="fill:#000000;fill-opacity:1;stroke:#000000;stroke-width:0.100223;stroke-linecap:round;stroke-linejoin:round;stroke-dasharray:none;paint-order:markers fill stroke"
     id="path2-5"
     sodipodi:type="arc"
     sodipodi:cx="44.19809"
     sodipodi:cy="31.744078"
     sodipodi:rx="3.9316092"
     sodipodi:ry="4.0089202"
     sodipodi:start="3.138617"
     sodipodi:end="3.1256151"
     sodipodi:open="true"
     sodipodi:arc-type="arc"
     d="m 40.266498,31.756007 a 3.9316092,4.0089202 0 0 1 3.907113,-4.020772 3.9316092,4.0089202 0 0 1 3.955911,3.970852 3.9316092,4.0089202 0 0 1 -3.881396,4.046586 3.9316092,4.0089202 0 0 1 -3.981144,-3.944545" /><path
     style="fill:#000000;fill-opacity:1;stroke:#000000;stroke-width:0.100223;stroke-linecap:round;stroke-linejoin:round;stroke-dasharray:none;paint-order:markers fill stroke"
     id="path2-6"
     sodipodi:type="arc"
     sodipodi:cx="20.067259"
     sodipodi:cy="39.761917"
     sodipodi:rx="3.9316092"
     sodipodi:ry="4.0089202"
     sodipodi:start="3.138617"
     sodipodi:end="3.1256151"
     sodipodi:open="true"
     sodipodi:arc-type="arc"
     d="m 16.135667,39.773846 a 3.9316092,4.0089202 0 0 1 3.907113,-4.020771 3.9316092,4.0089202 0 0 1 3.955911,3.970852 3.9316092,4.0089202 0 0 1 -3.881396,4.046586 3.9316092,4.0089202 0 0 1 -3.981143,-3.944546" /></g></svg>
