<?xml version="1.0" encoding="UTF-8" standalone="no"?>
<svg
   version="1.0"
   id="Layer_1"
   x="0px"
   y="0px"
   width="64px"
   height="64px"
   viewBox="0 0 64 64"
   enable-background="new 0 0 64 64"
   xml:space="preserve"
   inkscape:version="1.3.2 (091e20ef0f, 2023-11-25)"
   sodipodi:docname="select.svg"
   inkscape:export-filename="/Users/realor/NetBeansProjects/threecad/web/css/images/inspector/boolean.png"
   inkscape:export-xdpi="22.5"
   inkscape:export-ydpi="22.5"
   xmlns:inkscape="http://www.inkscape.org/namespaces/inkscape"
   xmlns:sodipodi="http://sodipodi.sourceforge.net/DTD/sodipodi-0.dtd"
   xmlns="http://www.w3.org/2000/svg"
   xmlns:svg="http://www.w3.org/2000/svg"
   xmlns:rdf="http://www.w3.org/1999/02/22-rdf-syntax-ns#"
   xmlns:cc="http://creativecommons.org/ns#"
   xmlns:dc="http://purl.org/dc/elements/1.1/"><metadata
   id="metadata3009"><rdf:RDF><cc:Work
       rdf:about=""><dc:format>image/svg+xml</dc:format><dc:type
         rdf:resource="http://purl.org/dc/dcmitype/StillImage" /><dc:title /></cc:Work></rdf:RDF></metadata><defs
   id="defs3007" /><sodipodi:namedview
   pagecolor="#ffffff"
   bordercolor="#666666"
   borderopacity="1"
   objecttolerance="10000"
   gridtolerance="10000"
   guidetolerance="10000"
   inkscape:pageopacity="0"
   inkscape:pageshadow="2"
   inkscape:window-width="1920"
   inkscape:window-height="1016"
   id="namedview3005"
   showgrid="true"
   inkscape:zoom="7.9843748"
   inkscape:cx="38.450099"
   inkscape:cy="27.929551"
   inkscape:window-x="0"
   inkscape:window-y="27"
   inkscape:window-maximized="1"
   inkscape:current-layer="Layer_1"
   inkscape:snap-global="false"
   inkscape:document-rotation="0"
   inkscape:snap-bbox="false"
   inkscape:showpageshadow="2"
   inkscape:pagecheckerboard="0"
   inkscape:deskcolor="#d1d1d1"><inkscape:grid
     type="xygrid"
     id="grid3011"
     originx="0"
     originy="0"
     spacingy="1"
     spacingx="1"
     units="px"
     visible="true" /></sodipodi:namedview>
<path
   d="m 33.384821,46.210518 v 3.537647 h -1.523153 q -6.117182,0 -8.205376,-1.817957 -2.063628,-1.817958 -2.063628,-7.247263 v -5.871512 q 0,-3.709616 -1.326617,-5.134501 -1.326618,-1.424886 -4.815131,-1.424886 H 13.95233 v -3.51308 h 1.498586 q 3.51308,0 4.815131,-1.400318 1.326617,-1.424886 1.326617,-5.085368 v -5.896078 q 0,-5.4293058 2.063628,-7.2226963 2.088194,-1.8179575 8.205376,-1.8179575 h 1.523153 v 3.51308 h -1.670555 q -3.463946,0 -4.520327,1.0809477 -1.056381,1.0809477 -1.056381,4.5448941 v 6.092614 q 0,3.857018 -1.130081,5.601274 -1.105515,1.744257 -3.807884,2.358432 2.726936,0.663308 3.832451,2.407565 1.105514,1.744257 1.105514,5.576707 v 6.092615 q 0,3.463946 1.056381,4.544893 1.056381,1.080948 4.520327,1.080948 z"
   id="text1"
   style="stroke-width:1.25783"
   transform="scale(0.82913616,1.2060745)"
   aria-label="{" /><path
   style="fill:#000000;stroke-width:0.529;stroke-linecap:round;stroke-linejoin:round;paint-order:markers fill stroke"
   id="path1"
   sodipodi:type="arc"
   sodipodi:cx="40"
   sodipodi:cy="15"
   sodipodi:rx="4"
   sodipodi:ry="4"
   sodipodi:start="3.138617"
   sodipodi:end="3.1256151"
   sodipodi:open="true"
   sodipodi:arc-type="arc"
   d="m 36.000018,15.011903 a 4,4 0 0 1 3.975078,-4.011825 4,4 0 0 1 4.024724,3.962016 4,4 0 0 1 -3.948913,4.037582 4,4 0 0 1 -4.050396,-3.935769" /><path
   style="fill:#000000;stroke-width:0.529;stroke-linecap:round;stroke-linejoin:round;paint-order:markers fill stroke"
   id="path1-3"
   sodipodi:type="arc"
   sodipodi:cx="40"
   sodipodi:cy="32"
   sodipodi:rx="4"
   sodipodi:ry="4"
   sodipodi:start="3.138617"
   sodipodi:end="3.1256151"
   sodipodi:open="true"
   sodipodi:arc-type="arc"
   d="m 36.000018,32.011903 a 4,4 0 0 1 3.975078,-4.011825 4,4 0 0 1 4.024724,3.962016 4,4 0 0 1 -3.948913,4.037582 4,4 0 0 1 -4.050396,-3.935769" /><path
   style="fill:#000000;stroke-width:0.529;stroke-linecap:round;stroke-linejoin:round;paint-order:markers fill stroke"
   id="path1-3-6"
   sodipodi:type="arc"
   sodipodi:cx="40"
   sodipodi:cy="48.817627"
   sodipodi:rx="4"
   sodipodi:ry="4"
   sodipodi:start="3.138617"
   sodipodi:end="3.1256151"
   sodipodi:open="true"
   sodipodi:arc-type="arc"
   d="m 36.000018,48.82953 a 4,4 0 0 1 3.975078,-4.011826 4,4 0 0 1 4.024724,3.962017 4,4 0 0 1 -3.948913,4.037582 4,4 0 0 1 -4.050396,-3.935769" /></svg>
