<?xml version="1.0" encoding="UTF-8" standalone="no"?>
<svg
   xmlns:dc="http://purl.org/dc/elements/1.1/"
   xmlns:cc="http://creativecommons.org/ns#"
   xmlns:rdf="http://www.w3.org/1999/02/22-rdf-syntax-ns#"
   xmlns:svg="http://www.w3.org/2000/svg"
   xmlns="http://www.w3.org/2000/svg"
   xmlns:sodipodi="http://sodipodi.sourceforge.net/DTD/sodipodi-0.dtd"
   xmlns:inkscape="http://www.inkscape.org/namespaces/inkscape"
   version="1.0"
   id="Layer_1"
   x="0px"
   y="0px"
   width="64px"
   height="64px"
   viewBox="0 0 64 64"
   enable-background="new 0 0 64 64"
   xml:space="preserve"
   inkscape:version="1.0.1 (0767f8302a, 2020-10-17)"
   sodipodi:docname="string.svg"
   inkscape:export-filename="/Users/realor/NetBeansProjects/threecad/web/css/images/inspector/boolean.png"
   inkscape:export-xdpi="22.5"
   inkscape:export-ydpi="22.5"><metadata
   id="metadata3009"><rdf:RDF><cc:Work
       rdf:about=""><dc:format>image/svg+xml</dc:format><dc:type
         rdf:resource="http://purl.org/dc/dcmitype/StillImage" /><dc:title></dc:title></cc:Work></rdf:RDF></metadata><defs
   id="defs3007" /><sodipodi:namedview
   pagecolor="#ffffff"
   bordercolor="#666666"
   borderopacity="1"
   objecttolerance="10000"
   gridtolerance="10000"
   guidetolerance="10000"
   inkscape:pageopacity="0"
   inkscape:pageshadow="2"
   inkscape:window-width="1920"
   inkscape:window-height="948"
   id="namedview3005"
   showgrid="true"
   inkscape:zoom="11.291611"
   inkscape:cx="34.195584"
   inkscape:cy="35.499962"
   inkscape:window-x="0"
   inkscape:window-y="27"
   inkscape:window-maximized="1"
   inkscape:current-layer="Layer_1"
   inkscape:snap-global="false"
   inkscape:document-rotation="0"
   inkscape:snap-bbox="false"><inkscape:grid
     type="xygrid"
     id="grid3011" /></sodipodi:namedview>
<path
   style="color:#000000;font-style:normal;font-variant:normal;font-weight:normal;font-stretch:normal;font-size:medium;line-height:normal;font-family:sans-serif;font-variant-ligatures:normal;font-variant-position:normal;font-variant-caps:normal;font-variant-numeric:normal;font-variant-alternates:normal;font-variant-east-asian:normal;font-feature-settings:normal;font-variation-settings:normal;text-indent:0;text-align:start;text-decoration:none;text-decoration-line:none;text-decoration-style:solid;text-decoration-color:#000000;letter-spacing:normal;word-spacing:normal;text-transform:none;writing-mode:lr-tb;direction:ltr;text-orientation:mixed;dominant-baseline:auto;baseline-shift:baseline;text-anchor:start;white-space:normal;shape-padding:0;shape-margin:0;inline-size:0;clip-rule:nonzero;display:inline;overflow:visible;visibility:visible;isolation:auto;mix-blend-mode:normal;color-interpolation:sRGB;color-interpolation-filters:linearRGB;solid-color:#000000;solid-opacity:1;vector-effect:none;fill:#000000;fill-opacity:1;fill-rule:nonzero;stroke:none;stroke-width:1.96618;stroke-linecap:square;stroke-linejoin:miter;stroke-miterlimit:4;stroke-dasharray:none;stroke-dashoffset:1.51181;stroke-opacity:1;color-rendering:auto;image-rendering:auto;shape-rendering:auto;text-rendering:auto;enable-background:accumulate;stop-color:#000000;stop-opacity:1;opacity:1"
   d="M 32.3125 5.1152344 C 22.099825 5.0197938 12.377904 10.806196 7.7402344 20.511719 L 7.6503906 20.472656 L 7.2734375 21.345703 L 7.2597656 21.375 C 7.2586762 21.377513 7.2589011 21.380299 7.2578125 21.382812 L 6.8808594 22.246094 L 6.9707031 22.285156 C 1.6978241 35.73838 7.9255847 51.066488 21.294922 56.859375 C 34.963026 62.781716 50.876129 56.501992 56.806641 42.84375 C 62.737152 29.185508 56.45555 13.280175 42.791016 7.3496094 C 39.374882 5.866968 35.818974 5.1480035 32.3125 5.1152344 z M 32.285156 7.0742188 C 35.536664 7.1065977 38.835214 7.7773525 42.007812 9.1542969 C 54.698207 14.662075 60.509148 29.377223 55.001953 42.060547 C 49.494758 54.743871 34.769883 60.556781 22.076172 55.056641 C 9.382461 49.5565 3.5649026 34.842885 9.0644531 22.15625 L 9.0761719 22.128906 C 13.212299 12.6189 22.530634 6.9770818 32.285156 7.0742188 z "
   id="path841" /><g
   aria-label="S"
   id="text886"
   style="font-size:40px;line-height:1.25;font-family:sans-serif;-inkscape-font-specification:sans-serif;letter-spacing:0px;word-spacing:0px"><path
     d="m 40.939611,18.25 v 3.847656 Q 38.693518,21.023437 36.70133,20.496094 34.709143,19.96875 32.853674,19.96875 q -3.222656,0 -4.980469,1.25 -1.738281,1.25 -1.738281,3.554687 0,1.933594 1.152344,2.929688 1.171875,0.976562 4.414062,1.582031 l 2.382813,0.488281 q 4.414062,0.839844 6.503906,2.96875 2.109375,2.109375 2.109375,5.664063 0,4.238281 -2.851563,6.425781 -2.832031,2.1875 -8.320312,2.1875 -2.070313,0 -4.414063,-0.46875 -2.324218,-0.46875 -4.824218,-1.386719 v -4.0625 q 2.402343,1.347657 4.707031,2.03125 2.304687,0.683594 4.53125,0.683594 3.378906,0 5.214844,-1.328125 1.835937,-1.328125 1.835937,-3.789062 0,-2.148438 -1.328125,-3.359375 -1.308594,-1.210938 -4.316406,-1.816407 l -2.402344,-0.46875 q -4.414062,-0.878906 -6.386719,-2.753906 -1.972656,-1.875 -1.972656,-5.214844 0,-3.867187 2.714844,-6.09375 2.734375,-2.226562 7.519531,-2.226562 2.050781,0 4.179688,0.371094 2.128906,0.371093 4.355468,1.113281 z"
     id="path888" /></g></svg>
