<?xml version="1.0" encoding="UTF-8" standalone="no"?>
<svg
   enable-background="new 0 0 64 64"
   height="16"
   id="Layer_1"
   version="1.1"
   viewBox="0 0 16 16"
   width="16"
   xml:space="preserve"
   sodipodi:docname="dictionary.svg"
   inkscape:version="1.4 (e7c3feb100, 2024-10-09)"
   xmlns:inkscape="http://www.inkscape.org/namespaces/inkscape"
   xmlns:sodipodi="http://sodipodi.sourceforge.net/DTD/sodipodi-0.dtd"
   xmlns="http://www.w3.org/2000/svg"
   xmlns:svg="http://www.w3.org/2000/svg"><defs
     id="defs1" /><sodipodi:namedview
     id="namedview1"
     pagecolor="#ffffff"
     bordercolor="#666666"
     borderopacity="1.0"
     inkscape:showpageshadow="2"
     inkscape:pageopacity="0.0"
     inkscape:pagecheckerboard="0"
     inkscape:deskcolor="#d1d1d1"
     showgrid="true"
     inkscape:zoom="32.482718"
     inkscape:cx="8.8354676"
     inkscape:cy="11.067424"
     inkscape:window-width="1920"
     inkscape:window-height="940"
     inkscape:window-x="0"
     inkscape:window-y="32"
     inkscape:window-maximized="1"
     inkscape:current-layer="Layer_1"><inkscape:grid
       id="grid1"
       units="px"
       originx="0"
       originy="0"
       spacingx="1"
       spacingy="1"
       empcolor="#0099e5"
       empopacity="0.30196078"
       color="#0099e5"
       opacity="0.14901961"
       empspacing="4"
       enabled="true"
       visible="true" /></sodipodi:namedview><path
     d="m 14.763371,5.1376435 h -0.01245 C 14.510752,5.1391963 14.473505,4.9280054 14.46934,4.8299524 V 3.2963773 C 14.46934,3.13266 14.338319,3 14.177063,3 H 9.8465671 C 8.7600543,3 8.3547208,3.4077408 8.2541543,3.5357419 l -0.027608,0.038822 -2.192e-4,6.656e-4 -0.085668,0.118906 c -2.191e-4,0 -2.191e-4,0 -2.191e-4,0 -0.1150262,0.1599461 -0.2151543,0.091841 -0.263356,0.039486 L 7.7131985,3.5266464 7.6321317,3.4277061 C 7.4958521,3.282845 7.1406924,3 6.4367267,3 H 1.8231555 C 1.6614604,3 1.5304391,3.13266 1.5304391,3.2963773 v 1.5140532 c 0,0.2650979 -0.1421954,0.3183393 -0.2293967,0.327213 H 1.2361889 C 1.1652006,5.1420803 1,5.1837862 1,5.4914772 v 7.2162108 c 0,0.177028 0.1417572,0.320335 0.3165983,0.320335 h 4.2106478 c 1.3432969,0 1.9287299,0.512893 2.1042284,0.709664 l 0.1001287,0.125562 h 2.191e-4 c 0,0 0.2686156,0.30769 0.5516917,0 v 0 l 0.05872,-0.06967 v 2.24e-4 l 8.763e-4,-6.67e-4 0.074932,-0.08873 c 0.00219,-0.0026 0.020156,-0.02306 0.04623,-0.05013 0.2241382,-0.220728 0.7843749,-0.626252 1.8798707,-0.626252 h 4.339258 C 14.858462,13.028022 15,12.884715 15,12.707687 V 5.4215977 C 15,5.1607148 14.813546,5.1389745 14.763371,5.1376435 Z m -0.94607,6.4377755 c 0,0.1422 -0.117213,0.256891 -0.263138,0.256891 H 9.9839422 c -1.270556,0 -1.7317597,0.581219 -1.7317597,0.581219 l -0.0585,0.07942 -0.027387,0.03837 c -2.191e-4,0 -2.191e-4,0 -2.191e-4,0 -0.1211615,0.166603 -0.2992895,0.0014 -0.3001658,4.45e-4 l -0.082162,-0.10404 c -0.06091,-0.07409 -0.527591,-0.595638 -1.6570471,-0.595638 h -3.680866 c -0.1452628,0 -0.2627,-0.114916 -0.2627,-0.25689 V 3.8858043 c 0,-0.1419772 0.1174372,-0.2568898 0.2627,-0.2568898 h 2.8577103 c 2.1257002,0 2.3270523,1.2225563 2.3408555,1.577721 v 5.3476575 c 0,0.388663 0.1829478,0.461649 0.2861436,0.472296 h 0.1535884 c 0.1051675,-0.01063 0.2723403,-0.07387 0.2723403,-0.377126 V 5.1376435 h -0.00174 C 8.3704959,4.6928557 8.5418315,3.6286924 9.8202752,3.6286924 h 3.7338878 c 0.145921,0 0.263138,0.1149136 0.263138,0.2568901 z"
     fill="#241f20"
     id="path1"
     style="stroke-width:0.220465;fill:#4d4d4d;fill-opacity:1" /></svg>
